<?xml version="1.0" encoding="UTF-8"?>
<svg width="640px" height="640px" viewBox="0 0 640 640" version="1.1" xmlns="http://www.w3.org/2000/svg" xmlns:xlink="http://www.w3.org/1999/xlink">
    <g id="logo" stroke="none" stroke-width="1" fill="none" fill-rule="evenodd">
        <g transform="translate(43, 44)">
            <rect id="外环绿" fill="#006F04" x="0" y="0" width="553" height="553" rx="276.5"></rect>
            <rect id="中环白" fill="#FFFFFF" x="14" y="14" width="525" height="525" rx="262.5"></rect>
            <g id="济南市历城第二中学" transform="translate(27.9508, 23.958)" fill="#006F04">
                <path d="M487.770706,191.714834 C489.930707,191.714834 491.356864,192.027241 492.049179,192.652054 L492.049179,197.317386 C490.756145,198.14133 489.872953,198.777335 489.399603,199.2254 C488.452807,200.12162 488.170546,201.191831 486.801619,201.896791 C485.722028,202.45275 483.311786,204.56126 481.884769,205.041977 C481.688611,205.108056 481.365553,205.409465 481.037167,205.683226 C480.963913,205.744295 481.088788,206.410709 481.311954,207.370105 C481.741425,207.431163 482.454836,207.557718 483.049179,207.412656 C484.321989,207.102001 484.690835,206.789128 485.400664,206.322598 C487.888099,204.687751 491.87171,205.220858 492.853876,203.599356 C493.473013,202.577196 494.166637,203.009395 494.934748,204.895954 L494.934748,207.412656 C494.429098,208.186826 494.002712,208.694765 493.655588,208.936473 C492.961271,209.419936 493.053059,211.199381 492.049179,211.57967 C491.579835,211.757467 489.951445,213.224518 488.549303,213.940417 C489.270055,214.679826 489.228897,215.742338 491.400781,216.59933 C493.799911,217.545989 498.049179,216.316358 498.049179,218.502842 L498.049179,221.145591 C498.049179,221.724728 497.63893,222.212007 496.818431,222.607428 L496.107036,224.041977 L493.284883,224.041977 C491.489218,224.041977 489.360492,221.535606 486.252643,217.987265 C485.893468,217.577183 485.352933,217.083422 484.631036,216.505983 C484.948475,217.919488 485.316107,222.340375 485.339621,222.539522 C485.355228,222.671708 485.862464,224.229202 485.969551,225.782364 C486.092093,227.559683 486.398074,228.380731 485.339621,228.998298 C484.281168,229.615864 482.320961,230.688725 480.541424,229.615864 C478.614033,228.453864 476.392156,225.626351 476.679796,223.82238 C476.799111,223.074082 475.188469,221.509784 474.704946,219.943317 C474.592952,219.580488 474.390327,217.424772 473.886841,217.03818 C473.571551,216.796091 473.369937,218.071272 473.056296,218.410215 C472.577374,218.927773 473.484021,222.832645 472.68679,222.539522 C472.217473,222.366965 470.808369,222.993461 469.20662,222.539522 C468.033595,222.207084 466.63152,220.908297 466.049179,220.229179 C465.4107,219.484593 463.121866,219.004475 462.90311,218.083713 C462.900885,218.074348 460.557366,217.150178 460.057081,219.943317 C459.704555,221.9115 460.6404,223.880715 460.83856,226.071434 C460.992074,227.768586 460.465276,229.872506 460.057081,230.479159 C459.121978,231.868894 455.489052,233.691824 455.399278,229.615864 C455.387148,229.065168 455.515003,227.620838 455.733761,226.071434 C455.909692,224.825365 454.307553,222.888358 454.575544,221.916542 C454.635213,221.700165 453.972816,220.954654 453.108408,221.458265 C452.845649,221.61135 452.672532,223.142869 452.358291,223.241398 C450.781214,223.735885 448.665651,223.526427 447.1563,223.82238 C444.999296,224.245325 445.112865,223.297782 442.857569,222.932135 C441.509301,222.713543 439.962227,220.491214 439.049179,219.943317 C438.381018,219.54237 437.76615,219.100508 437.520887,218.410215 C437.500912,218.353995 436.271662,217.502517 436.276797,216.207302 C436.283044,214.676966 436.973973,213.468541 436.969193,213.397254 C436.817209,211.13051 445.771151,202.559137 445.771151,201.630142 C445.771151,199.73306 454.575469,207.569538 454.575544,207.567109 C454.582712,207.334988 455.372673,209.08123 456.245671,210.857796 L456.474833,211.320656 C457.280273,212.934104 458.10421,214.431618 458.414022,214.330432 C458.984342,214.144163 461.613167,214.564299 461.977908,214.330432 C462.125797,214.235607 462.650142,214.285363 463.230379,214.375539 L463.582663,214.433661 C464.408343,214.576709 465.217908,214.758147 465.131733,214.692158 C464.245587,214.013588 464.197221,211.779027 463.513083,211.046187 C462.647998,210.119521 462.779511,207.302085 462.38594,206.600643 C461.555779,205.121091 467.112033,205.037171 467.077775,204.994166 C466.902422,204.774041 468.884476,206.051884 471.615249,208.695494 C471.923068,208.993487 472.238089,209.302721 472.556589,209.618488 L472.940221,210.000245 C473.304056,210.363574 473.670451,210.732891 474.033967,211.101323 L474.396322,211.469205 C477.224096,214.344648 479.76397,217.025197 479.401551,216.207302 C479.275077,215.921879 479.544989,215.825979 479.401551,215.492657 C479.246039,215.131278 478.456572,214.75406 478.307878,214.330432 C478.072877,213.660915 477.902456,212.289237 477.796616,210.215399 C476.009829,207.669343 474.878379,205.928932 474.402264,204.994166 C472.583926,201.424181 471.715143,198.753576 470.601793,198.322771 C465.841365,196.48075 459.203756,199.933333 458.414022,200.041977 C456.309367,200.331515 456.3882,201.604683 454.575544,201.431553 C451.244143,201.113367 449.068688,200.077106 448.049179,198.322771 L448.049179,196.03091 C448.852209,194.618395 449.420121,193.884877 449.752914,193.830356 C451.980557,193.465405 453.754504,192.185123 455.399278,192.098952 C456.301813,192.051668 457.513134,192.025581 459.033241,192.020689 L460.134955,192.020689 C461.797578,192.025581 463.768986,192.051668 466.049179,192.098952 C470.196111,192.810328 472.808665,193.992851 473.886841,195.646521 C474.16937,196.079855 475.99231,198.481016 477.050304,200.170034 L477.049179,199.2254 C478.221491,197.527851 479.130297,196.390801 479.775596,195.814248 C483.167552,192.783655 486.09025,191.714834 487.770706,191.714834 Z M445.823083,205.178956 C446.102812,205.914856 446.102812,207.454688 445.823083,209.798451 C445.630817,211.409396 444.535836,212.870014 444.049179,215.492657 C443.901592,216.288016 443.901592,217.478099 444.049179,219.062907 C445.406076,218.916334 446.833056,218.916334 448.330118,219.062907 C449.82718,219.20948 451.411606,218.387878 453.083394,216.598102 C453.586093,215.852748 453.908021,215.223168 454.049179,214.709364 C454.190337,214.195559 454.190337,213.653341 454.049179,213.082708 C451.511639,209.236452 449.605286,206.80066 448.330118,205.775332 C447.054951,204.750004 446.219272,204.551212 445.823083,205.178956 Z" id="学"></path>
                <path d="M466.510119,124.61332 L469.049179,125.041977 C469.818357,125.015057 470.202946,125.763021 470.202946,127.28587 C470.202946,128.741875 469.75231,126.752466 469.049179,129.541626 C469.040118,129.57757 469.034872,129.749539 469.033441,130.057534 L469.033441,130.461415 C469.034872,130.871429 469.040118,131.41747 469.049179,132.099537 L464.918847,133.850851 C460.310159,134.235387 458.074413,135.057263 458.211607,136.31648 C458.622171,140.084789 467.135113,146.794195 466.510119,146.889162 C466.307843,146.919897 466.001622,148.332704 465.708493,149.846186 L465.60577,150.382449 C465.300374,151.991262 465.02509,153.543931 464.918847,153.519368 C464.698056,153.468516 454.564332,153.500813 451.480751,151.000604 C451.132209,150.718001 450.133923,151.03328 449.107398,151.415506 L448.667541,151.581868 C447.864612,151.888704 447.099061,152.190045 446.672354,152.228357 C441.255281,152.714736 437.1347,147.56836 437.30013,146.889162 C437.332799,146.755037 433.693479,147.589334 430.639831,149.591525 C426.69002,152.181306 422.821893,156.176161 419.804707,156.847088 C414.454898,158.036717 410.826539,155.29334 412.46065,153.519368 C414.615028,151.180601 420.934705,148.629751 425.864207,145.986331 C428.640784,144.497407 431.873251,143.475567 433.373054,142.321552 C434.124113,141.743654 434.160702,140.662808 434.049179,140.415346 C433.337782,138.836809 432.632394,136.202472 432.779576,134.96755 C432.900357,133.954143 436.755696,134.574976 437.30013,133.850851 C437.506659,133.576157 442.939441,137.476827 443.150137,137.202905 C443.698866,136.489511 446.582914,136.692515 447.263187,135.997572 C447.880928,135.36651 446.303264,133.834223 446.672354,133.248125 C447.352731,132.167715 445.596999,130.955751 446.177994,130.133568 C446.861545,129.166254 446.751572,127.875931 447.263187,127.535128 C447.453669,127.408241 448.013073,125.478114 448.727864,126.351349 C449.664668,127.49581 451.466302,131.799274 451.480751,131.816585 C452.744607,133.330867 453.969711,133.066459 455.143207,132.099537 C456.718649,130.801423 461.761418,128.918295 465.604837,126.351349 C465.791752,126.226512 466.093512,125.647169 466.510119,124.61332 Z M453.664125,139.591207 C453.596952,139.539366 451.916356,138.082095 450.748961,139.049903 C449.516223,140.071882 448.898994,139.951136 450.133762,140.90409 C451.36853,141.857045 450.774601,141.893057 452.006958,140.871393 C453.239315,139.84973 454.931387,140.56924 453.664125,139.591207 Z M435.015975,114.041977 L436.409416,116.524447 C436.835159,116.748856 437.104052,117.369928 437.216097,118.387663 C437.328142,119.405399 437.328142,121.226769 437.216097,123.851774 L434.049179,127.884873 C433.598586,129.049845 432.774923,130.08561 431.578188,130.992168 C430.381454,131.898725 429.274113,132.248662 428.256165,132.041977 L426.505353,130.041089 L425.049179,128.784715 L425.049179,126.180183 L430.134959,120.020268 L432.908708,114.041977 L435.015975,114.041977 Z" id="中"></path>
                <path d="M366.049179,76.0419769 C367.367673,76.0419769 368.477646,76.4088928 369.379098,77.1427247 C369.762931,77.4551866 372.947261,78.7335407 377.073847,81.2085495 C379.070692,82.4061999 382.023582,83.9945724 386.792799,87.1825739 C388.639862,88.4172507 391.020901,90.607674 393.334759,92.0419769 C394.944368,93.0397339 396.350145,94.3377588 399.970923,96.1753371 C400.368073,96.3768945 401.394159,96.7304784 403.049179,97.236089 L403.049179,108.041977 L398.276013,108.041977 L392.696896,102.766703 C385.794222,97.8429027 381.063015,94.5306005 378.503273,92.8297965 C374.484823,90.1597629 371.433502,89.2429158 369.379098,87.1825739 C367.025966,84.8226419 367.105629,82.5699078 367.169641,80.4261323 L367.181858,79.9841479 C367.187052,79.7639335 367.190272,79.5448866 367.188806,79.3270088 C367.183754,78.5760472 366.803878,77.4810365 366.049179,76.0419769 Z M391.483999,67.7508618 C392.679558,69.0660656 398.849616,74.6586274 403.129269,74.126659 C405.726676,75.2285445 407.706351,76.9292568 409.068295,79.228796 L409.068179,84.123306 L409.049502,84.1160659 C408.755126,84.0248087 406.919996,84.0430601 403.544112,84.1708202 C401.938708,84.2315766 399.824848,82.7026911 397.648254,81.2167728 C396.464579,80.408701 395.456789,79.1563259 394.055588,79.228796 C393.252363,79.2703388 393.268985,79.1513054 391.880712,80.1746138 C391.006146,80.8192646 391.006146,80.0886648 391.880712,77.9828143 C393.118566,77.9828143 393.118566,77.248372 391.880712,75.7794873 C391.299136,75.0893657 389.355332,74.040686 388.887998,73.1863715 C388.106239,71.7572709 387.822111,69.5298226 388.035613,66.5040264 C388.035613,66.5040264 388.45596,66.2841969 389.296654,65.8445377 C389.54739,65.7134105 390.28844,66.435658 391.483999,67.7508618 Z" id="二"></path>
                <path d="M324.209783,30.0419769 L328.431137,30.0419769 L335.445396,30.0419769 C335.633182,31.3234809 336.048689,31.9642328 336.691918,31.9642328 C337.335147,31.9642328 338.538549,31.9642328 340.302124,31.9642328 L340.302124,36.2472959 C342.291146,34.5847158 341.087744,34.5847158 336.691918,36.2472959 C334.475851,37.0854521 336.069243,39.3831596 332.759454,40.8663304 C332.089969,41.1663374 330.593033,41.3048259 329.074513,42.3468897 C328.49015,42.7479008 326.405818,44.0176534 325.945864,45.285431 C325.738015,45.8583254 326.425921,46.1376508 326.711232,46.6153458 C326.923725,46.9711231 331.97296,46.8876246 331.94126,47.088428 C331.928513,47.1691759 337.889188,48.1328151 337.937712,48.5049928 C337.964055,48.7070518 344.171746,51.7160166 344.354331,52.0677791 C344.392388,52.1410994 347.354104,59.4509993 347.260348,59.7700199 C347.199696,59.9763989 348.488577,62.1986715 348.203353,62.4203122 C348.012589,62.5685506 348.375732,63.4928546 347.780381,64.0419769 C347.019238,64.7440181 345.249137,65.0896886 344.741066,65.1748281 C343.52136,65.3792195 339.138942,67.3505292 337.227654,67.3632384 C336.747993,67.3664279 334.33642,69.156669 334.003059,69.0478141 C333.855949,68.9997768 331.459956,68.7752736 330.43077,69.0478141 C329.773234,69.2219373 330.594881,69.8903248 329.913325,69.9871307 C329.166521,70.0932042 328.450169,70.1790589 327.802239,70.1948118 C326.496265,70.2265635 325.484774,70.080169 325.177746,69.9871307 C325.100762,69.9638026 324.200919,69.2352233 322.891357,68.3597866 C322.431933,68.052663 321.385813,67.6548776 321.046716,67.3632384 C319.673857,66.1825182 319.420788,65.249707 319.384828,64.9151831 C319.380801,64.8777221 319.384828,64.8475738 319.384828,64.8256154 C319.384828,64.786602 319.44072,64.770844 319.482317,64.723781 C319.52484,64.6756691 319.600127,64.5763604 319.664093,64.5286173 C320.232144,64.1046361 321.787414,63.5980376 322.614168,63.2889586 C322.962509,63.1587327 323.545325,64.5302678 325.177746,64.9151831 C325.660483,65.0290097 325.938667,65.5377392 326.44069,65.9510424 C327.010365,66.4200413 327.808142,66.7953497 328.431137,66.8599247 C330.79045,67.1044733 333.113175,65.7340266 333.056388,65.7200951 C332.988044,65.7033284 336.440006,63.8285574 337.937712,62.0347851 C339.21898,60.5002355 339.178959,58.4636385 339.185705,58.4243179 C339.571576,56.1751481 337.937712,53.314047 336.691918,52.5881258 C335.063111,51.6390235 326.859153,51.0965452 326.711232,51.3418579 C326.667592,51.4142302 325.853051,50.3856661 325.800568,50.4504664 C325.334222,51.0262649 324.606574,51.3410106 325.177746,52.0677791 C326.6298,53.9153983 326.320202,56.241106 325.945864,56.6679739 C325.875329,56.748406 322.604614,57.9250194 320.852669,60.1622313 C320.705375,60.3503232 322.614168,62.318314 322.614168,63.2889586 C322.614168,63.3098956 322.544819,63.3144078 322.503296,63.3294677 C322.418034,63.360391 322.314374,63.396065 322.218562,63.431462 C321.897686,63.5500068 321.49799,63.6861113 321.320038,63.7705841 C321.264795,63.7968074 321.193783,63.8099856 321.134811,63.8313141 C321.033388,63.867996 320.943042,63.9095787 320.852669,63.944458 C320.557428,64.0584045 320.307547,64.174218 320.066591,64.2923703 C320.041632,64.3046088 319.933312,64.3447981 319.903696,64.3636943 C319.714917,64.4841457 319.524529,64.6256626 319.384828,64.8256154 C319.07691,65.2663329 317.328528,63.5620931 317.049179,64.0419769 C316.179385,65.5361659 315.945744,67.3306991 315.105451,68.3597866 C313.9241,69.8065598 313.082513,68.889521 312.604718,69.0478141 C311.575997,69.3886282 313.663755,64.7904645 312.604718,63.2889586 C312.397932,62.9957769 313.025019,62.4888526 312.604718,62.4203122 C310.98332,62.1559038 307.196948,63.6327947 306.193492,64.0419769 C304.595604,64.6935523 303.830299,66.2060219 302.711929,66.4742038 C300.468944,67.0120647 300.337949,65.6600074 300.251339,65.7200951 C300.222566,65.7400778 296.875111,60.3017228 297.656214,60.1622313 C298.458195,60.0190115 300.770914,60.8000394 302.711929,60.635762 C305.813183,60.373288 309.476626,59.0127456 311.682754,58.0907927 C316.189193,56.2075271 319.230924,53.252728 319.096619,53.2209498 C317.082418,52.7443662 307.821579,52.7443662 306.193492,53.2209498 C304.594699,53.6889583 304.859206,51.2194344 304.859206,50.2451872 C304.859206,50.0579647 305.232974,49.2796944 306.193492,48.5049928 C307.203289,47.6905455 308.513859,47.0901233 308.271486,47.088428 C308.063941,47.0869764 309.779909,46.404826 313.41939,45.0419769 C315.851309,44.7945676 317.061238,44.5838418 317.049179,44.4097994 C316.942622,42.8719544 316.899047,41.5659669 317.049179,40.8663304 C317.236746,39.9922416 325.717295,36.9386628 325.945864,36.2472959 C326.625088,34.1927954 319.096619,35.2242334 319.096619,34.8577002 C319.096619,34.1945949 320.801007,32.5893538 324.209783,30.0419769 Z M324.063233,15.6994626 C326.032239,19.6952595 327.761229,21.7890181 329.250202,21.9807385 C333.362436,22.5102305 338.894462,17.587597 341.379203,17.5331154 C345.213469,17.4490435 347.871763,18.2975223 349.354084,20.0785518 C351.92116,21.755436 353.486192,23.0487641 354.049179,23.9585359 C354.612166,24.8683077 354.612166,26.1040276 354.049179,27.6656955 C352.862748,28.5684063 352.09169,29.0271668 351.736008,29.0419769 C343.267087,29.3946103 339.224102,29.4420278 338.271342,29.0419769 C337.727467,28.8136113 345.719517,26.3620367 345.41525,26.1613031 C344.209987,25.3661558 345.250117,22.8851011 344.505315,22.5293406 C342.161367,21.4097363 339.505622,21.310462 338.271342,21.2361779 C335.956479,21.0968598 332.694391,27.7259172 331.565082,27.6656955 C327.584158,27.453408 329.09153,27.8780198 327.166624,27.6656955 C324.457737,27.3668949 323.342979,23.9287553 321.514817,23.9585359 C316.666035,24.0375221 311.202278,30.0167043 307.614737,30.0167043 C297.324694,30.0167043 301.065376,26.7039868 318.836782,20.0785518 L324.063233,15.6994626 Z" id="第"></path>
                <path d="M256.905824,4.05081338 C257.527917,5.86245461 257.909036,7.38059339 258.049179,8.60522973 C258.082539,8.89674402 258.107958,9.22155466 258.125436,9.57966164 C258.652455,9.24260254 259.159927,9.0419769 259.625863,9.0419769 L262.495916,9.0419769 C263.593468,9.2105528 263.85561,11.8156854 263.282342,16.8573747 C261.315038,19.7830297 260.333268,22.0867903 260.337031,23.7686565 C260.344128,26.9400358 266.111482,23.5710193 266.049179,25.3668905 C265.998224,26.8356687 265.86314,28.0300606 265.703498,29.1231442 C265.849912,29.3844845 266.186756,30.2776551 266.04968,31.3767062 C265.874404,32.7820379 265.217585,34.5821876 265.085509,36.3658783 C265.110971,36.6328419 265.137006,36.9060326 265.164086,37.1801374 L265.235884,37.8940368 C265.267014,38.2019577 265.297511,38.5064962 265.324816,38.8017387 C265.705867,40.151308 266.401067,41.2519789 266.629308,41.8191392 C267.07212,42.9194914 268.650128,36.4357117 268.841647,36.4357117 C269.269144,36.4357117 269.183477,33.7914062 268.56605,31.6769176 C268.140561,30.2197534 267.115533,29.0419769 267.239108,29.0419769 L271.456795,29.0419769 L272.370947,30.1351062 C272.882597,30.9628395 273.138422,31.3767062 273.138422,31.3767062 C273.138422,31.3767062 273.088358,32.3163961 273.082099,33.765509 L273.08163,34.2150953 C273.083351,34.9884427 273.098371,35.8783892 273.138422,36.8311514 C273.157015,37.2734252 272.573412,37.8604867 272.370947,38.6751217 C271.832483,40.8416695 271.272157,44.1766056 271.456795,47.3583214 C271.537678,48.7521066 272.788558,50.2162423 275.209437,51.7507286 C278.296818,53.8320892 279.888059,54.6192698 279.983161,54.1122703 C280.397398,51.9039159 276.479107,45.6968083 276.934442,45.4886583 C277.49386,45.232928 279.939394,48.7806446 280.256942,48.8636152 C282.171441,49.3638445 283.056978,53.7591264 283.319784,54.1122703 C284.864409,56.1878501 279.732265,58.0672383 279.005658,58.1223518 C277.971748,58.2007744 274.941052,56.210798 269.913571,52.1524227 C270.174132,51.3588216 269.282644,51.0389055 267.239108,51.1926743 C266.425952,51.2538614 265.604295,52.8342759 264.468205,53.0419769 C263.322196,53.2514912 261.182521,53.2514912 258.049179,53.0419769 L258.049179,50.058408 C260.936667,49.802881 262.762076,49.4046167 263.525404,48.8636152 C264.863592,47.9151875 264.790219,45.4821943 265.075689,44.9431129 C265.514329,44.1147853 264.470313,42.8657313 263.666303,42.0190348 C261.662324,42.513944 259.577479,44.1055878 257.412205,46.7927549 L251.676146,49.4656154 L245.935088,49.6348304 L244.235487,47.0722719 L244.109297,47.800968 C244.243219,50.152701 243.253257,51.2330373 241.139408,51.0419769 C239.02556,50.8509165 238.134302,50.5019232 238.465634,49.9949969 C238.430416,49.0798266 238.41085,48.3072829 238.406937,47.6773659 L238.406937,47.2316707 C238.41085,46.673067 238.430416,46.25709 238.465634,45.9837396 C239.213845,40.1764373 239.91343,37.9259758 239.784834,37.1241554 C239.523292,35.4933892 237.045367,42.1627431 237.164148,41.1854937 C237.378392,39.4228425 237.242464,37.8648194 237.144641,36.5791101 C237.117256,38.7544137 237.059141,41.0066359 236.970701,43.3358918 C233.911023,48.9933991 231.27767,51.5620941 229.070642,51.0419769 C226.863613,50.5218597 226.172927,49.575229 226.998583,48.2020848 C226.029198,45.7587932 225.71273,43.7937844 226.049179,42.3070584 C226.549953,40.0942026 228.788148,38.4520239 229.070642,37.6793639 C230.143101,34.7460414 230.158706,31.3749096 230.08475,28.3432297 C227.072319,29.2426605 225.060623,29.4754527 224.049179,29.0419769 C222.882512,28.5419769 222.882512,27.8913899 224.049179,27.0902158 L230.032038,26.3482152 C229.949062,22.7257039 230.032038,19.9444168 230.032038,19.7307026 C230.032038,18.822352 230.774262,15.0419465 231.845449,15.0419465 L235.639632,15.0419465 C236.161356,15.9571005 236.555462,18.3763069 236.82195,22.2995659 C238.671606,23.0555825 240.110571,23.2811449 241.139408,22.9778359 C242.476638,22.5836105 243.4666,21.1940588 244.109297,18.8091809 L245.984158,13.0419769 L249.049179,13.0419769 C249.004236,15.1940253 248.961011,16.7475355 248.919506,17.7025076 C248.832898,19.6952071 247.475956,21.4536498 247.315679,22.9778359 C247.262689,23.4817633 247.270553,23.9560797 247.296899,24.4278911 C248.264337,23.4549255 249.521163,21.4133067 251.06202,18.3091001 C252.597219,15.8092673 253.782201,14.0535596 254.616966,13.0419769 C254.736511,12.8971096 254.857453,12.7520411 254.979525,12.6075756 L255.04943,13.0419769 C254.684239,10.6952181 254.22116,8.79261697 253.660192,7.33417351 C253.099224,5.87573006 251.895553,4.08818116 250.049179,1.97152682 C249.667921,0.988051335 250.105192,0.34486803 251.360993,0.0419769019 C252.616793,-0.260914226 254.46507,1.0753646 256.905824,4.05081338 Z M255.708406,32.0419769 C254.286889,33.2376567 252.400479,35.4277103 250.049179,38.6121377 C247.965483,39.7500194 246.632149,40.6459614 246.049179,41.2999634 C245.466209,41.9539655 245.466209,42.5538163 246.049179,43.0995157 C246.964582,45.4009465 248.297916,46.5516619 250.049179,46.5516619 C251.800442,46.5516619 253.686851,45.4009465 255.708406,43.0995157 C257.48819,42.3141768 258.601781,41.114132 259.049179,39.4993811 C259.496577,37.8846303 259.496577,35.0654955 259.049179,31.0419769 C258.243515,30.5129638 257.129924,30.8462971 255.708406,32.0419769 Z M237.305436,27.2969398 L237.065775,27.3219956 C237.125947,29.1771176 237.158515,31.1023629 237.163479,33.0977315 L237.164148,34.1224694 C237.491644,32.7110053 241.788873,31.1679473 241.788873,30.0527842 C241.788873,28.2570376 241.902538,28.2053303 241.139408,27.6135169 C240.595117,27.191414 239.317126,27.0858883 237.305436,27.2969398 Z M255.708406,21.1227286 L252.570778,21.5684105 L250.970719,25.7903709 L250.049179,32.0419769 L252.120976,32.0419769 C252.991392,32.0419769 253.53745,30.6282692 253.759149,27.8008537 L255.708406,21.1227286 Z M270.383564,4.54770461 L274.384912,8.08342821 C274.717165,8.86355091 274.938588,9.74962002 275.049179,10.7416355 C275.115244,11.3342481 273.896788,11.8557685 273.158047,12.5255342 C272.826121,12.8264688 272.439485,13.3319497 271.998139,14.0419769 L268.970636,14.0419769 L267.646168,12.118897 L267.049179,10.7416355 L267.049179,4.90913411 L270.383564,4.54770461 Z" id="城"></path>
                <path d="M181.837803,22.0419769 C182.798059,22.0419769 183.694556,24.0419769 184.527293,28.0419769 C184.641322,27.2274068 184.645883,27.4955346 184.540977,28.8463604 L184.527293,29.0208527 C184.897279,29.0431003 185.407693,31.0732395 185.91362,31.0732395 C186.820509,31.0732395 187.353134,30.0419769 188.552454,30.0419769 L192.25236,30.0419769 C193.29864,30.0419769 194.529576,31.6931682 195.945166,34.9955509 L198.049179,44.1229556 L198.049179,53.5845684 L193.920922,60.364533 L188.200844,63.0419769 L183.777679,63.0419769 C182.202809,61.9404799 181.415373,60.3786648 181.415373,58.3565315 C181.415373,58.2505694 181.417535,58.1242438 181.42186,57.9775546 C180.405274,64.7213581 179.465578,68.4784769 178.603426,69.2501475 L178.549069,69.2948382 L175.399809,69.2948382 C174.26593,69.2948382 174.112766,68.8399897 173.553456,68.3797256 C173.22118,68.1062912 172.719754,67.5882917 172.049179,66.8257272 C174.453028,61.0342875 175.902667,56.8456064 176.398095,54.2596838 C177.062284,50.7929062 176.069846,47.0578242 176.398095,44.4603187 C176.509131,43.5816726 176.611426,42.6698357 176.70498,41.7248079 C175.181826,42.2711918 173.03857,45.0442554 170.275143,50.0420268 L170.243987,50.0411618 L170.198461,50.371584 C169.513691,54.750539 167.167514,58.1751383 166.768439,61.0775015 C165.955596,66.989084 165.215843,71.3105757 164.549179,74.0419769 L159.872184,74.0419769 C159.350794,74.0419769 158.098743,71.4376073 158.245929,70.5678734 C159.350794,64.0391393 163.436449,58.2766437 164.110758,53.2249192 C164.427308,50.8534136 164.629078,47.4953486 164.110758,45.4543263 C163.484377,42.9877903 162.077446,41.9179565 162.077446,39.9841946 L162.077446,34.0419769 L164.354013,34.0419769 L169.63352,41.583829 C169.951591,42.6083437 170.175974,43.6677809 170.306671,44.7621407 L176.594683,35.0419769 L177.19365,35.0428019 C177.363696,31.6897797 177.451081,28.0228602 177.455803,24.0420432 C179.41688,22.7086657 180.877547,22.0419769 181.837803,22.0419769 Z M188.049179,36.0417637 L183.936359,36.0431577 C183.64133,39.3373543 183.335856,42.4462163 183.019936,45.3697437 L183.019462,46.4643679 L183.020294,47.0633454 C183.023503,48.8080934 183.033132,50.0831799 183.049179,50.8886048 C183.089265,52.9005481 183.425302,54.13507 183.425302,54.408251 C183.425302,55.0915331 183.998282,56.6361084 185.144244,59.0419769 C185.997022,59.240909 186.965334,59.240909 188.049179,59.0419769 C189.133024,58.8430448 190.295587,58.3237597 191.536868,57.4841217 C192.70242,51.9678374 192.828597,47.10934 191.915399,42.9086295 C191.002201,38.707919 189.713461,36.4189637 188.049179,36.0417637 Z M166.049179,28.0419769 L166.049179,29.013659 C166.049179,29.2208247 165.361536,29.1614848 165.219591,29.4840929 C165.064274,29.8370929 165.437297,30.5769917 165.026729,30.9045926 C164.894609,31.010014 164.619361,31.0744001 164.200985,31.0977509 L164.200985,32.0419769 L163.049179,32.0419769 L163.049179,29.9930991 L163.990914,29.013659 L165.026729,28.0419769 L166.049179,28.0419769 Z M174.896511,9.00698856 C177.664517,8.89662982 179.04852,9.03392652 179.04852,9.41887866 C179.04852,9.80383081 179.382073,10.2324051 180.049179,10.7046014 C179.189601,13.0092221 178.460494,14.7132653 177.861859,15.8167311 C177.263224,16.920197 176.601506,17.7798655 175.876705,18.3957367 L168.067477,26.0419769 L166.093012,26.0419769 C166.542724,24.6411845 166.542724,23.902408 166.093012,23.8256475 C164.633237,23.5764814 161.34015,25.2120656 160.939954,25.0399412 C160.354825,24.7882773 160.354825,24.3835127 160.939954,23.8256475 C160.69925,23.4749326 160.578898,22.961721 160.578898,22.2860127 C160.578898,21.8105386 166.305086,17.4568217 166.585716,16.9692414 C166.947534,16.3405994 168.36396,14.9087588 169.826414,13.4280004 L170.314221,12.9336372 C171.368833,11.8630749 172.389001,10.8107121 172.994778,10.0606973 C173.731583,9.1484563 174.365494,8.79722006 174.896511,9.00698856 Z" id="历"></path>
                <path d="M115.049179,51.0419769 C116.074744,55.1133541 115.565318,59.4466875 113.520901,64.0419769 C113.028597,65.1485423 112.775793,65.3873491 111.980471,66.8052605 C111.917518,66.9174935 111.826685,69.464595 111.722072,73.0408529 L111.910584,73.0419769 C113.07713,73.0419769 116.216855,68.4239471 117.827914,68.4239471 C119.321416,68.4239471 121.999144,66.6564036 124.827436,67.7422407 C126.116832,68.2372654 127.067204,69.663032 127.678551,72.0195405 L127.678551,85.7525162 C127.678551,85.9415324 127.432897,87.1035072 127.177436,88.3403105 L127.06804,88.8723319 C126.81459,90.1121856 126.585025,91.2985634 126.615189,91.533335 C127.021624,94.6966398 129.195141,96.0025555 129.761223,97.6076397 C130.149451,98.708432 129.633982,100.435131 129.761223,101.248967 C130.054949,103.127635 129.360724,103.91547 127.678551,103.612472 L124.827436,102.539962 C122.547522,99.0018473 120.42861,96.1079996 118.470701,93.8584184 C116.512792,91.6088373 114.326086,89.371635 111.910584,87.1468114 C111.695051,87.5710168 111.491694,87.9472926 111.300513,88.2756391 C111.156225,93.1704318 111.017564,97.0113187 110.910414,97.18995 C109.854723,98.9499058 107.284731,103.233529 103.719645,95.6892752 C103.161674,94.5085254 104.431979,80.1928483 103.719645,79.1236832 C103.369856,78.5986742 101.979701,80.8513604 99.5491791,85.8817417 C93.4850218,89.8402981 90.2181751,91.8195764 89.7486388,91.8195764 L84.0491791,91.8195764 L84.0491791,88.1482378 C88.6099475,84.0181412 91.7984235,80.4394265 93.6146072,77.4120937 C95.4307909,74.3847609 97.6421769,68.962635 100.248765,61.1457161 L108.597466,51.0419769 L115.049179,51.0419769 Z M119.282172,73.0419769 C117.843144,73.3466439 117.2512,73.9495329 117.50634,74.8506439 C115.521489,76.2800831 114.873737,78.0288218 115.563083,80.09686 C116.252429,82.1648982 118.081128,84.8132705 121.049179,88.0419769 L124.792678,86.3643171 L125.133791,75.5217767 C122.671739,73.5639098 120.721199,72.7373099 119.282172,73.0419769 Z M99.1618706,51.0419769 L100.049179,51.8465889 C100.004955,52.3123535 100.004955,52.6806883 100.049179,52.9515933 C100.498248,55.7024988 100.049179,57.6469937 100.049179,58.1100609 C100.049179,58.6415313 99.6258834,58.6415313 98.779292,58.1100609 L98.1366535,60.0419769 L90.1842941,60.0419769 C88.0483974,59.1359438 86.980449,58.4919718 86.980449,58.1100609 C86.980449,57.0866996 87.2757013,54.6417135 88.9931595,52.9515933 C89.6055246,52.3489756 90.9575311,51.7124368 93.0491791,51.0419769 L99.1618706,51.0419769 Z" id="市"></path>
                <path d="M67.7804609,106.218721 C69.8338866,107.068948 71.7435419,111.076284 74.873726,115.232606 C76.2972398,117.122777 78.9104206,120.2259 82.7132684,124.541977 L84.0491791,127.961989 L84.0491791,133.02115 L82.0700355,137.604581 C79.200921,140.037683 76.8920414,141.41494 75.1433967,141.736351 L80.0491791,145.448209 L79.422658,149.041977 L77.3054822,149.041977 L67.3881791,141.024721 L66.913069,146.775242 L66.42284,149.041977 L64.4742114,149.041977 C63.5352222,148.169953 62.8151956,147.08218 62.3141315,145.778656 C61.8130674,144.475133 61.2303596,142.17383 60.566008,138.874746 L58.0491791,133.041977 L58.8526647,133.041927 C58.5790939,132.893898 58.132153,132.748078 57.5118421,132.604466 C57.4925069,132.762706 57.4832707,132.916804 57.4832707,133.066109 C57.4832707,133.738641 58.0295467,134.386681 58.0491791,135.041977 C58.1676064,138.994885 58.0491791,142.560444 58.0491791,144.590028 C58.0491791,144.928677 57.4832707,145.400284 57.4832707,145.715736 C57.4832707,146.101726 57.6719068,146.543806 58.0491791,147.041977 C56.1058709,147.382212 54.8700438,147.382212 54.3416979,147.041977 C54.0989955,146.885686 54.0713428,145.621204 54.1066914,143.909232 C51.4846817,143.535582 49.6150022,143.262417 48.4964034,143.08863 C48.0120788,143.013385 47.5928803,142.945012 47.2388077,142.883512 C47.1745829,143.087875 47.1096493,143.287259 47.0455932,143.48147 L46.8894871,143.949602 C46.2730806,145.776903 45.7582956,147.041977 45.5396488,147.041977 L44.0491791,147.041977 L44.0487281,144.5844 C43.5074911,144.61681 43.2833438,144.776117 43.20236,144.651276 L42.2840176,144.651276 L43.20236,136.951816 L43.9861791,135.020721 L43.7191696,134.933368 C42.4268652,134.495093 41.4673631,134.010769 40.8406632,133.480393 C39.4006542,132.261715 37.951629,129.763557 37.1605367,129.565925 C36.3415054,129.361312 34.7445942,130.364003 33.8044239,130.851518 C32.8163683,131.363863 31.8361892,130.747541 30.5260266,131.339033 C29.6150872,131.750289 29.086622,131.587784 28.940631,130.851518 C29.4428196,131.288956 29.4428196,130.571482 28.940631,128.699098 C28.6625653,127.662344 32.0971584,126.909996 31.5360289,125.257797 C31.2345129,124.370009 29.4055629,122.641039 26.0491791,120.070887 L26.0491791,117.800699 C27.5704885,117.550613 29.062771,117.178077 30.5260266,116.683091 C31.9826979,116.190331 33.4672732,116.450821 34.4274584,116.305854 C34.6716396,116.268988 34.8819075,116.2059 35.0491791,116.097534 C35.7417097,115.648883 35.3256063,114.041977 37.1605367,114.041977 L44.0491791,114.041977 L44.0491791,118.588315 C42.2937641,121.001215 41.4160566,123.224375 41.4160566,125.257797 C41.4160566,127.291219 42.2937641,130.032085 44.0491791,133.480393 L44.0491791,134.865721 L48.1481791,124.771721 L45.0491791,122.073481 L45.0491791,120.041977 L48.4834751,120.041977 C48.8892422,120.041977 49.3430942,120.271677 49.8245062,120.641451 L50.6583012,118.5904 L63.9101692,106.967268 C62.9704204,106.468237 64.2605176,106.218721 67.7804609,106.218721 Z M65.3605072,115.232606 C62.7401494,116.293909 58.6641708,118.275422 56.2712683,121.456577 C55.4488116,122.549961 54.6704568,123.726275 53.9362379,124.948457 C54.1277785,125.137058 54.3151935,125.308866 54.4968171,125.458537 C55.0986022,125.95445 55.0653773,124.091667 55.6675282,124.541977 C56.2155589,124.951814 57.2070593,124.093784 57.6911923,124.541977 C59.6322301,126.338919 60.3452234,128.414702 62.3944638,130.720128 C63.3510653,131.796319 65.5743939,130.438185 66.4141018,131.700639 C66.6680975,132.082507 66.8762945,132.52959 67.0386928,133.041889 L68.0491791,133.041977 L67.7901791,136.168721 L73.8264322,140.738491 C73.2994124,140.011955 72.709919,139.18221 72.2122763,139.243758 C70.9837645,139.395701 73.0997106,137.599464 75.3949569,135.683806 L75.7786154,135.363737 C78.4042093,133.173333 81.0342886,130.95981 78.9932308,131.424643 C78.2197172,127.961989 69.7190059,113.467319 65.3605072,115.232606 Z M52.4723462,130.748153 C52.2100053,130.748153 50.6293253,131.454221 50.1207871,132.576845 C49.4786873,133.994313 49.2338002,136.102501 48.6357294,138.243379 C49.9055723,138.791176 50.9790289,139.180472 51.8574057,139.411757 C52.8075254,139.661932 53.5974273,139.745142 54.2271114,139.661388 C54.2963921,136.584432 54.2516547,133.599225 53.5491791,133.066109 C52.8732673,132.553153 52.7881412,131.973664 52.7799519,131.522414 L52.7797642,131.32396 C52.7825748,130.979421 52.7838698,130.748153 52.4723462,130.748153 Z M38.0491791,151.041977 L50.4544452,151.041977 C54.3042402,152.026894 58.1245925,153.003506 61.915502,153.971813 C65.4834875,156.683903 67.8613799,158.683609 69.0491791,159.970932 L69.0491791,162.124161 L66.5581494,163.466662 L61.915502,165.041977 L58.0475305,165.041977 C51.8428129,160.470619 48.0062371,157.87175 46.5378029,157.245371 C42.5872364,155.560205 38.1068966,155.27429 38.1068966,153.971813 C38.1068966,151.943136 38.0876574,150.966524 38.0491791,151.041977 Z" id="南"></path>
                <path d="M27.4325527,218.818738 C40.9227542,224.004854 47.667855,227.894441 47.667855,230.487499 C47.667855,233.080557 47.2496049,234.265383 46.4131048,234.041977 L42.4702676,234.041977 C40.1261614,232.439457 37.140668,231.042351 33.5137871,229.850659 C29.6669718,228.586703 25.1787691,227.52816 20.0491791,226.67503 L20.932711,224.72022 C28.3661537,225.484332 32.6747557,225.484332 33.858517,224.72022 C35.0422783,223.956108 32.9002902,221.988947 27.4325527,218.818738 Z M6.68520992,213.595499 L14.077715,218.541977 L15.0491791,224.041977 C14.0609866,222.711856 12.6472454,221.824844 10.8079554,221.38094 C7.77038186,220.902411 4.51745641,220.663146 1.04917905,220.663146 C1.13528075,219.293685 1.6667186,217.996512 2.6434926,216.771626 C3.54539556,215.64063 4.89263466,214.581921 6.68520992,213.595499 Z M37.9755893,175.280229 C38.3119003,182.709713 38.0021787,187.690354 37.0464246,190.222151 C36.9598698,190.451435 36.8661139,190.669523 36.7661625,190.877499 L36.5611595,190.761081 C38.9350372,192.133016 40.7836962,192.818983 42.1071364,192.818983 L59.369418,194.980684 L60.566008,199.042467 C60.5657379,199.603567 60.3953156,199.927596 60.0547413,200.014554 C56.9120168,200.816978 54.1947732,200.462843 54.1947732,200.014554 C54.1947732,199.564793 51.5223421,198.92526 48.8430962,198.430728 L48.2698391,198.327099 C46.1746381,197.956156 44.1927735,197.689492 43.6172246,197.689492 C42.5401712,197.386689 40.7679034,196.755544 39.1425563,196.755544 C37.4021164,196.755544 35.7034058,196.163924 34.0464246,194.980684 L33.650207,194.519971 C33.0559459,195.03051 32.4999762,195.515366 32.0694034,196.068562 C31.4660276,196.843773 29.9158508,198.336496 28.5300862,199.544756 C30.0163467,201.235288 31.623557,203.085672 33.3520468,205.094857 C34.5656062,204.951836 35.171633,204.573884 35.171633,203.962776 C35.8890423,203.505365 37.1766131,203.041977 38.1463864,203.041977 C41.0153714,203.041977 43.5100534,203.842783 45.6304323,205.444394 L54.1947732,212.006749 L54.1947732,215.179284 L46.8555809,215.179284 C45.7785276,214.876481 43.9204853,213.678284 42.1425563,212.755544 C41.0815798,212.2049 39.3828692,211.61328 37.0464246,210.980684 L36.2282644,210.028715 C36.3011028,210.185742 36.3471659,210.299221 36.3664538,210.369151 C37.0696748,212.918758 37.456124,218.980186 36.3664538,218.305028 C36.1702558,218.183464 33.7139551,220.377652 33.0361099,218.818738 C32.9737312,218.675279 31.4976502,217.747461 31.4991768,217.182112 C31.5027911,215.843701 33.7049302,213.824216 33.2419946,212.384489 C32.2945398,209.43791 29.613208,205.670342 27.1858612,203.178486 C26.7193497,202.699577 26.2385387,202.225426 25.7544925,201.761604 C24.4307311,202.960276 23.1478061,204.740216 21.222234,205.041977 C20.1834176,205.204772 18.4189349,205.204772 15.9287859,205.041977 C13.9289381,203.45426 13.0494671,202.510653 13.2903729,202.211156 C13.6001483,201.82604 12.9251789,200.738086 13.2903729,200.304113 C13.4865508,200.070987 14.4380251,200.271726 14.9438518,200.300738 C14.9684774,200.101345 15.0040774,199.885807 15.0491791,199.655107 C15.328002,198.228896 13.9855679,196.830617 13.9855679,195.69382 C13.9855679,194.331564 13.0196199,193.300645 12.6192332,191.253232 C12.4068668,190.167277 12.2168487,188.096859 12.0491791,185.041977 C12.9560494,185.93257 13.9560494,186.263606 15.0491791,186.035087 C15.8079,185.876477 19.0604662,188.983248 24.8068776,195.355401 C26.5407557,193.412825 28.0660701,191.555534 29.0570281,190.222151 C29.1974782,190.033169 29.3348704,189.843204 29.4692047,189.652257 L29.0491791,189.164073 C29.3234487,189.164073 29.5796498,189.157122 29.8177825,189.143219 C32.278009,185.467716 33.6248843,181.433655 33.858517,177.041977 L37.9755893,175.280229 Z M23.0442549,216.059197 C23.5451821,216.069953 24.0427362,216.239755 24.5369172,216.568601 C24.5369172,216.767649 25.1968773,217.346458 26.5167974,218.305028 C25.5135931,218.105323 24.7652669,217.841291 24.271819,217.512933 C23.7677133,217.177482 23.3585253,216.692904 23.0442549,216.059197 Z M18.55174,200.388196 L18.5954647,200.523192 C19.2921182,200.536276 19.8552882,200.488635 20.0491791,200.304113 C20.6972832,199.687325 21.3543462,199.034478 22.0063927,198.364394 C20.5667949,197.105378 19.4340189,196.14166 19.0491791,195.69382 C16.9599349,193.262553 16.7941219,194.827346 18.55174,200.388196 Z M4.68520992,186.595499 C6.57720909,187.321555 8.28494511,189.241574 9.80841798,192.355557 C11.3318909,195.46954 12.0883232,197.631446 12.077715,198.841273 C10.9598559,199.109532 10.3309986,199.109532 10.1911432,198.841273 C9.27814005,197.090029 9.04184228,195.396687 8.04917905,193.772254 C7.1263066,193.626867 6.05012705,192.578183 5.15387781,193.018502 C4.83211908,193.176579 4.68019248,193.716898 4.56086827,194.296019 L4.48464282,194.684079 C4.36063055,195.327864 4.23921938,195.925332 3.93216548,196.005374 C3.18613757,196.199847 2.22514209,196.199847 1.04917905,196.005374 C-0.19805258,193.074428 -0.333281399,190.996512 0.643492598,189.771626 C1.43298683,188.185095 2.78022593,187.126386 4.68520992,186.595499 Z" id="济"></path>
            </g>
            <g id="JINAN-LICHENG-NO.2-H" transform="translate(30.7656, 306.2867)" fill="#006F02" fill-rule="nonzero">
                <path d="M24.9347275,-5.47034449 L22.9395643,-5.11121511 C22.5671338,-5.05801076 22.3277142,-4.92499987 22.2213055,-4.71218246 C22.1148968,-4.49936505 22.0616924,-4.14023567 22.0616924,-3.63479431 L22.0616924,11.6880594 C22.0616924,13.9758466 21.9153805,16.0441658 21.6227565,17.8930171 C21.3301326,19.7418683 20.7315836,21.3712516 19.8271096,22.781167 C18.9226356,24.137878 17.9383551,25.1487607 16.874268,25.8138151 C15.810181,26.4788695 14.4800721,26.8246978 12.8839415,26.8513 C12.5381132,26.8513 12.1922849,26.7980957 11.8464567,26.6916869 C11.5006284,26.5852782 11.2013539,26.4389663 10.9486332,26.252751 C10.6959125,26.0665358 10.5030467,25.8337668 10.3700359,25.5544439 C10.237025,25.275121 10.2237239,24.9492444 10.3301326,24.5768139 C10.5163478,23.9117595 10.9552837,23.5792323 11.6469403,23.5792323 C12.3119947,23.5792323 13.0302535,23.9250606 13.8017166,24.6167172 C14.3337602,25.0689542 14.9323091,25.1953145 15.5973635,24.9957982 C16.262418,24.7962819 16.8077626,24.4571041 17.2333974,23.9782649 C17.6324301,23.5260279 17.9383551,23.1203447 18.1511725,22.7612154 C18.3639899,22.402086 18.5103019,21.876693 18.5901084,21.1850364 C18.6699149,20.4933798 18.7164687,19.5490025 18.7297698,18.3519046 C18.7430709,17.1548067 18.7497215,15.4921706 18.7497215,13.3639965 L18.7497215,-3.75450411 C18.7497215,-4.04712805 18.7364204,-4.27989709 18.7098182,-4.45281124 C18.683216,-4.62572539 18.6167106,-4.76538681 18.5103019,-4.87179552 C18.4038932,-4.97820423 18.2376296,-5.05136021 18.0115111,-5.09126348 C17.7853926,-5.13116674 17.4595159,-5.17772055 17.0338811,-5.2309249 L14.759395,-5.47034449 L14.759395,-6.14869999 C15.1052233,-6.09549564 15.7170733,-6.06224292 16.5949452,-6.04894183 C17.472817,-6.03564074 18.5768073,-6.0289902 19.9069161,-6.0289902 C22.5671338,-6.0289902 24.2430709,-6.06889346 24.9347275,-6.14869999 L24.9347275,-5.47034449 Z" id="路径" transform="translate(17.597, 10.3513) rotate(79) translate(-17.597, -10.3513)"></path>
                <path d="M17.5565436,40.4897749 L17.6114012,9.85748179 C17.6114012,9.33743959 17.5272767,8.97035099 17.3590278,8.75621597 C17.1907789,8.54208094 16.8925194,8.41971808 16.4642493,8.38912736 L12.5639329,7.97615267 L12.5639329,7.19608938 C12.86984,7.28786154 16.0818653,7.33374761 22.2000088,7.33374761 C24.0048611,7.33374761 25.4426248,7.28786154 26.5132999,7.19608938 L26.5132999,8.02203875 L23.7601354,8.34324128 C23.3624561,8.373832 23.0183105,8.39677504 22.7276987,8.4120704 C22.4370869,8.42736575 22.2000088,8.48089951 22.0164645,8.57267166 C21.8329202,8.66444381 21.695262,8.80974972 21.6034898,9.00858938 C21.5117177,9.20742905 21.4658316,9.49039318 21.4658316,9.85748179 L21.410974,40.4897749 C21.410974,41.0098171 21.4874508,41.3539626 21.6404043,41.5222116 C21.7933579,41.6904605 22.0992651,41.7898804 22.5581259,41.8204711 L26.4584423,42.0499015 L26.4584423,43.1970534 C25.846628,43.1358719 24.9671448,43.0899859 23.819993,43.0593951 C22.6728411,43.0288044 21.2274297,43.0135091 19.4837588,43.0135091 C17.7400879,43.0135091 16.2946765,43.0288044 15.1475246,43.0593951 C14.0003727,43.0899859 13.1208896,43.1358719 12.5090752,43.1970534 L12.5090752,42.0499015 L15.2163537,41.9122432 C15.6752145,41.8816525 16.0499508,41.8510618 16.3405626,41.8204711 C16.6311744,41.7898804 16.8682524,41.7363466 17.0517967,41.6598698 C17.2353411,41.583393 17.3653516,41.4610302 17.4418284,41.2927812 C17.5183052,41.1245323 17.5565436,40.8568635 17.5565436,40.4897749 Z" id="路径" transform="translate(19.5112, 25.1966) rotate(75) translate(-19.5112, -25.1966)"></path>
                <path d="M17.9076306,59.3265511 C17.9076306,60.0027004 17.9833669,60.4557204 18.1348395,60.6856112 C18.2863122,60.9155019 18.6018802,61.0574933 19.0815436,61.1115852 L22.5275464,61.5172748 L22.5275464,62.247516 C21.0128199,62.1663781 19.4980934,62.1258091 17.9833669,62.1258091 C16.4686404,62.1258091 14.7140822,62.1663781 12.7196923,62.247516 L12.7196923,61.5172748 L14.8024412,61.1115852 C15.6607862,60.9493094 16.2098746,60.7599876 16.4497063,60.5436198 C16.689538,60.3272521 16.8094538,59.9215625 16.8094538,59.3265511 L16.8094538,32.805463 C16.8094538,31.5613483 16.6832266,30.6282623 16.4307722,30.006205 C16.1783178,29.3841477 15.6986544,29.0190271 14.991782,28.9108432 L12.7575604,28.5457226 L12.7575604,27.7749124 L17.3774763,27.7749124 C17.6804216,27.7749124 17.932876,27.7884354 18.1348395,27.8154814 C18.3368031,27.8425273 18.5135212,27.8966193 18.6649938,27.9777572 C18.8164665,28.0588951 18.9616278,28.167079 19.1004777,28.3023088 C19.2393276,28.4375387 19.4097343,28.6133375 19.6116979,28.8297053 L36.3494258,57.3386723 L36.0086123,30.6958772 C36.0086123,29.9385901 35.9013192,29.4450011 35.6867329,29.2151103 C35.4721467,28.9852196 35.1250219,28.8432282 34.6453585,28.7891363 L31.4644328,28.3834467 L31.4644328,27.6532055 C32.1713052,27.7343434 33.534559,27.7749124 35.5541944,27.7749124 C37.5990752,27.7749124 38.9875745,27.7343434 39.7196923,27.6532055 L39.7196923,28.3834467 L38.0534931,28.5457226 C37.6243206,28.5998145 37.3592435,28.7688518 37.2582617,29.0528345 C37.1572799,29.3368172 37.1194118,29.8844981 37.1446572,30.6958772 L37.4854707,62.6532055 L36.5766348,62.6532055 L17.9076306,32.2374976" id="路径" transform="translate(26.2197, 45.1532) rotate(72) translate(-26.2197, -45.1532)"></path>
                <path d="M33.0048309,76.2230904 L30.3645932,85.4463317 C30.2265261,86.0576942 30.1989127,86.5066635 30.281753,86.7932397 C30.3645932,87.0798158 30.7787944,87.2613141 31.5243565,87.3377344 L34.4237648,87.6243106 L34.4237648,88.6559848 C34.1476307,88.6177746 33.5884591,88.589117 32.74625,88.5700119 C31.9040409,88.5509068 30.7649877,88.5413543 29.3290902,88.5413543 C27.8931928,88.5413543 26.7541395,88.5509068 25.9119305,88.5700119 C25.0697214,88.589117 24.5105498,88.6177746 24.2344157,88.6559848 L24.2344157,87.6243106 L26.8438831,87.3377344 C27.7551257,87.2231039 28.3902342,86.516216 28.7492086,85.2170707 L38.0687352,50.7133 L39.3527589,50.7133 L48.506605,84.8158641 C48.6998989,85.4654368 48.8793861,85.9048536 49.0450666,86.1341145 C49.210747,86.3633754 49.5144946,86.5735313 49.9563092,86.7645821 L52.2344157,87.738941 L52.2344157,88.7133 C50.9089719,88.5986695 49.1279068,88.5413543 46.8912204,88.5413543 L44.654534,88.5413543 C43.9365853,88.5413543 43.2807668,88.5604594 42.6870784,88.5986695 C42.09339,88.6368797 41.5480251,88.6750898 41.0509837,88.7133 L41.0509837,87.738941 L43.7847115,87.1657887 C44.1712993,87.0893684 44.4750468,87.0033955 44.6959541,86.9078701 C44.9168614,86.8123448 45.0618318,86.6786092 45.1308654,86.5066635 C45.1998989,86.3347178 45.220609,86.1245619 45.1929956,85.8761959 C45.1653821,85.6278299 45.0963486,85.3125961 44.985895,84.9304946 L42.724262,76.6064026 L33.0048309,76.2230904 Z M42.2402189,75.7805771 L37.4812236,57.7603923 L32.9311499,75.2615809 L42.2402189,75.7805771 Z" id="形状" transform="translate(38.2344, 69.7133) rotate(61) translate(-38.2344, -69.7133)"></path>
                <path d="M42.1344914,108.650234 C42.1344914,109.638274 42.2130328,110.30026 42.3701155,110.636193 C42.5271983,110.972127 42.854454,111.179615 43.3518827,111.258658 L46.9255153,111.851482 L46.9255153,112.918565 C45.3546878,112.8 43.7838603,112.740718 42.2130328,112.740718 C40.6422053,112.740718 38.8226635,112.8 36.7544073,112.918565 L36.7544073,111.851482 L38.9142951,111.258658 C39.8044306,111.021529 40.3738556,110.744878 40.62257,110.428705 C40.8712843,110.112532 40.9956415,109.519709 40.9956415,108.650234 L40.9956415,83.0402496 C40.9956415,81.2222569 40.8647392,79.8587623 40.6029346,78.949766 C40.34113,78.0407696 39.8437013,77.5072283 39.1106485,77.3491419 L36.793678,76.8156006 L36.793678,75.6892355 L41.5847018,75.6892355 C41.8988673,75.6892355 42.1606719,75.7089963 42.3701155,75.7485179 C42.5795592,75.7880395 42.7628224,75.8670827 42.9199052,75.9856474 C43.0769879,76.1042121 43.2275255,76.2622985 43.3715181,76.4599064 C43.5155106,76.6575143 43.6922287,76.9144046 43.9016723,77.2305772 L61.2593161,105.745398 L60.9058799,79.9575663 C60.9058799,78.850962 60.794613,78.1296932 60.5720791,77.7937597 C60.3495452,77.4578263 59.9895639,77.250338 59.4921352,77.1712948 L56.1933974,76.5784711 L56.1933974,75.5113884 C56.9264503,75.6299532 58.340195,75.6892355 60.4346317,75.6892355 C62.5552488,75.6892355 63.995174,75.6299532 64.7544073,75.5113884 L64.7544073,76.5784711 L63.026497,76.8156006 C62.5814292,76.8946438 62.3065344,77.1416536 62.2018126,77.5566302 C62.0970908,77.9716068 62.0578201,78.7719189 62.0840005,79.9575663 L62.4374367,113.511388 L61.4949402,113.511388 L42.1344914,82.2102964 L42.1344914,108.650234 Z" id="路径" transform="translate(50.7544, 94.5114) rotate(54) translate(-50.7544, -94.5114)"></path>
                <path d="M69.3604996,138.855007 C69.3604996,139.376104 69.421239,139.766927 69.5427179,140.027475 C69.6641968,140.288024 69.9813916,140.418298 70.4943024,140.418298 L74.2601475,140.418298 C75.4209456,140.418298 76.453516,140.358171 77.3578587,140.237918 C78.2622015,140.117665 79.0788094,139.786969 79.8076827,139.24583 C80.5365559,138.70469 81.2046897,137.862918 81.8120841,136.720513 C82.4194784,135.578108 83.0066263,134.004796 83.5735277,132.000576 L84.2214151,132.000576 L83.0471193,141.921462 C81.9133165,141.841294 80.4218259,141.781167 78.5726475,141.741083 C76.7234691,141.700998 74.4626123,141.680956 71.790077,141.680956 C69.1175418,141.680956 66.9039268,141.700998 65.149232,141.741083 C63.3945371,141.781167 62.0852648,141.841294 61.2214151,141.921462 L61.2214151,141.019564 L63.7319784,140.418298 C64.2988799,140.338129 64.7308047,140.217876 65.0277531,140.057538 C65.3247015,139.897201 65.5339151,139.686758 65.6553939,139.426209 C65.7768728,139.165661 65.8376123,138.814922 65.8376123,138.373994 L65.8376123,107.649311 C65.8376123,106.887707 65.7498775,106.396673 65.574408,106.176209 C65.3989385,105.955745 65.1357343,105.805429 64.7847953,105.72526 L61.7883165,104.943614 L61.7883165,103.921462 C63.246063,104.041716 65.4326827,104.101842 68.3481756,104.101842 C71.2636686,104.101842 73.072354,104.041716 73.774232,103.921462 L73.774232,104.943614 L70.4133165,105.72526 C70.0083869,105.805429 69.731685,105.935703 69.5832108,106.116083 C69.4347367,106.296462 69.3604996,106.807538 69.3604996,107.649311 L69.3604996,138.855007 Z" id="路径" transform="translate(72.7214, 122.9215) rotate(46) translate(-72.7214, -122.9215)"></path>
                <path d="M85.2027797,152.114274 L85.2027797,121.149084 C85.2027797,120.46765 85.1485034,119.986637 85.0399508,119.706046 C84.9313982,119.425456 84.7389639,119.265118 84.4626482,119.225034 L81.9462008,118.683894 L81.9462008,117.661743 C82.1435692,117.781996 84.2159376,117.842122 88.163306,117.842122 C89.3277797,117.842122 90.2554113,117.781996 90.9462008,117.661743 L90.9462008,118.744021 L89.169885,119.164907 C88.913306,119.204991 88.6912666,119.235055 88.5037666,119.255097 C88.3162666,119.275139 88.163306,119.345287 88.044885,119.46554 C87.9264639,119.585793 87.8376482,119.776194 87.7784376,120.036743 C87.7192271,120.297291 87.6896218,120.668072 87.6896218,121.149084 L87.6896218,152.114274 C87.6896218,152.795709 87.7389639,153.246658 87.8376482,153.467122 C87.9363324,153.687586 88.1337008,153.817861 88.4297534,153.857945 L90.9462008,154.158578 L90.9462008,155.661743 C90.5514639,155.581574 89.9840297,155.521447 89.2438982,155.481363 C88.5037666,155.441278 87.5712008,155.421236 86.4462008,155.421236 C85.3212008,155.421236 84.388635,155.441278 83.6485034,155.481363 C82.9083718,155.521447 82.3409376,155.581574 81.9462008,155.661743 L81.9462008,154.158578 L83.6929113,153.978198 C83.9889639,153.938114 84.2307403,153.898029 84.4182403,153.857945 C84.6057403,153.817861 84.7587008,153.747713 84.8771218,153.647502 C84.9955429,153.547291 85.0794245,153.386953 85.1287666,153.166489 C85.1781087,152.946025 85.2027797,152.595287 85.2027797,152.114274 Z" id="路径" transform="translate(86.4462, 136.6617) rotate(43) translate(-86.4462, -136.6617)"></path>
                <path d="M111.651945,160.204631 C111.351291,162.656244 110.927643,165.244057 110.381,167.968071 C108.659075,168.940934 106.103519,169.427365 102.714333,169.427365 C100.609758,169.427365 98.6896749,168.989577 96.9540837,168.114001 C95.2184925,167.238425 93.7357236,166.00289 92.5057771,164.407396 C91.2758306,162.811901 90.3260385,160.885634 89.656401,158.628594 C88.9867634,156.371553 88.6519446,153.842111 88.6519446,151.040268 C88.6519446,148.432997 88.9935964,145.952198 89.6769001,143.597872 C90.3602037,141.243545 91.3031627,139.16162 92.5057771,137.352096 C93.7083915,135.542572 95.12283,134.102736 96.7490926,133.032588 C98.3753552,131.962439 100.117779,131.427365 101.976365,131.427365 C103.206312,131.427365 104.265432,131.466279 105.153727,131.544108 C106.042022,131.621937 106.814155,131.748409 107.470126,131.923525 C108.126098,132.09864 108.706906,132.341855 109.212551,132.653171 C109.718195,132.964487 110.230673,133.353632 110.749984,133.820606 C110.83198,134.754554 110.893478,135.766331 110.934476,136.855936 C110.975474,137.945542 110.982307,138.996233 110.954975,140.00801 L110.135011,140.00801 C109.6157,137.75097 108.727405,135.98036 107.470126,134.696182 C106.212848,133.412004 104.627583,132.769915 102.714333,132.769915 C101.293062,132.769915 99.9811187,133.197974 98.7785044,134.054093 C97.57589,134.910212 96.5372685,136.136018 95.6626398,137.731512 C94.7880112,139.327006 94.1047076,141.243545 93.6127289,143.481128 C93.1207503,145.718712 92.874761,148.19951 92.874761,150.923525 C92.874761,156.566126 93.7220575,160.827262 95.4166505,163.706935 C97.1112435,166.586607 99.5848026,168.026443 102.837328,168.026443 C104.750578,168.026443 106.383674,167.364897 107.736615,166.041804 C109.089556,164.718712 110.203341,162.772987 111.07797,160.204631 L111.651945,160.204631 Z" id="路径" transform="translate(100.1519, 150.4274) rotate(40) translate(-100.1519, -150.4274)"></path>
                <path d="M128.566712,150.870017 C128.566712,150.078878 128.502433,149.515192 128.373874,149.178957 C128.245316,148.842723 128.026767,148.654828 127.718227,148.615271 L125.712717,148.259258 L125.712717,147.250555 C126.201239,147.329669 126.850459,147.389005 127.660376,147.428562 C128.470293,147.468119 129.428053,147.487897 130.533654,147.487897 C131.639256,147.487897 132.597015,147.468119 133.406932,147.428562 C134.21685,147.389005 134.853213,147.329669 135.316023,147.250555 L135.316023,148.259258 L132.616299,148.852612 C132.282047,148.931726 132.063498,149.109733 131.960651,149.386631 C131.857805,149.66353 131.806381,150.177771 131.806381,150.929353 L131.806381,180.419068 C131.806381,181.249764 131.864233,181.843119 131.979935,182.199131 C132.095638,182.555144 132.384894,182.792486 132.847704,182.911157 L135.778833,183.741853 L135.778833,184.750555 C135.136042,184.671442 134.383975,184.612106 133.522635,184.572549 C132.661294,184.532992 131.703535,184.513214 130.649357,184.513214 C129.62089,184.513214 128.663131,184.532992 127.776078,184.572549 C126.889026,184.612106 126.111248,184.671442 125.442745,184.750555 L125.442745,183.741853 L127.795362,183.148499 C128.103902,183.069385 128.309595,182.832043 128.412442,182.436473 C128.515289,182.040904 128.566712,181.368435 128.566712,180.419068 L128.566712,166.831252 L114.952387,166.831252 L114.952387,180.419068 C114.952387,181.407992 115.00381,182.09035 115.106657,182.466141 C115.209504,182.841932 115.428053,183.069385 115.762304,183.148499 L118.114921,183.741853 L118.114921,184.750555 C117.446418,184.671442 116.66864,184.612106 115.781588,184.572549 C114.894536,184.532992 113.92392,184.513214 112.869742,184.513214 C111.841276,184.513214 110.896372,184.532992 110.035032,184.572549 C109.173691,184.612106 108.421625,184.671442 107.778833,184.750555 L107.778833,183.741853 L110.709963,182.911157 C111.121349,182.792486 111.391322,182.555144 111.51988,182.199131 C111.648438,181.843119 111.712717,181.249764 111.712717,180.419068 L111.712717,150.870017 C111.712717,150.078878 111.648438,149.515192 111.51988,149.178957 C111.391322,148.842723 111.172773,148.654828 110.864233,148.615271 L108.858723,148.259258 L108.858723,147.250555 C109.347245,147.329669 110.002892,147.389005 110.825665,147.428562 C111.648438,147.468119 112.638337,147.487897 113.795362,147.487897 C114.952387,147.487897 115.935858,147.468119 116.745775,147.428562 C117.555693,147.389005 118.192056,147.329669 118.654866,147.250555 L118.654866,148.259258 L115.762304,148.852612 C115.428053,148.931726 115.209504,149.109733 115.106657,149.386631 C115.00381,149.66353 114.952387,150.177771 114.952387,150.929353 L114.952387,164.991853 L128.566712,164.991853 L128.566712,150.870017 Z" id="路径" transform="translate(121.7788, 166.0006) rotate(34) translate(-121.7788, -166.0006)"></path>
                <path d="M153.95997,187.552379 C153.719533,189.350583 153.53374,191.080377 153.402593,192.741761 C153.271445,194.403145 153.184013,195.957027 153.140298,197.403409 C151.763248,197.325226 150.298768,197.276362 148.746855,197.256816 C147.194942,197.23727 145.490024,197.227498 143.632101,197.227498 C141.774177,197.227498 140.041937,197.23727 138.43538,197.256816 C136.828822,197.276362 135.337019,197.325226 133.95997,197.403409 L133.95997,196.347941 L136.320625,196.054756 C136.69221,196.015664 136.949041,195.878845 137.091117,195.644296 C137.233194,195.409748 137.304232,194.862468 137.304232,194.002458 L137.304232,164.625279 C137.304232,163.687085 137.244123,163.012759 137.123904,162.602299 C137.003686,162.19184 136.790571,161.967064 136.48456,161.927973 L134.091117,161.517513 L134.091117,160.403409 C134.987292,160.481592 136.184013,160.530456 137.681281,160.550001 C139.178549,160.569547 140.965434,160.57932 143.041937,160.57932 C145.11844,160.57932 146.872538,160.569547 148.304232,160.550001 C149.735926,160.530456 150.888931,160.481592 151.763248,160.403409 C151.697675,161.615242 151.664888,162.993213 151.664888,164.537323 C151.664888,166.081433 151.686746,167.47895 151.730462,168.729875 L151.304232,168.729875 C150.954505,167.127128 150.670352,165.876203 150.451773,164.977101 C150.233194,164.077999 150.031008,163.413446 149.845216,162.98344 C149.659423,162.553435 149.468166,162.279795 149.271445,162.162521 C149.074724,162.045247 148.823358,161.967064 148.517347,161.927973 L141.107511,161.927973 C140.735926,161.927973 140.48456,162.113657 140.353412,162.485025 C140.222265,162.856393 140.156691,163.491629 140.156691,164.39073 L140.156691,177.701349 L147.271445,177.701349 C147.64303,177.701349 147.927183,177.593847 148.123904,177.378845 C148.320625,177.163842 148.462702,176.684972 148.550134,175.942236 L149.00915,171.83764 L149.697675,171.83764 C149.566527,176.489515 149.566527,181.180482 149.697675,185.91054 L149.271445,185.91054 L148.517347,181.395485 C148.408057,180.809114 148.27691,180.369336 148.123904,180.07615 C147.970899,179.782965 147.768713,179.55819 147.517347,179.401824 C147.265981,179.245458 146.965434,179.157503 146.615707,179.137957 C146.265981,179.118411 145.85068,179.108639 145.369806,179.108639 L140.156691,179.108639 L140.156691,193.474724 C140.156691,194.334735 140.244123,194.930878 140.418986,195.263155 C140.593849,195.595432 140.965434,195.76157 141.53374,195.76157 L148.615707,195.76157 C149.096582,195.76157 149.528276,195.673615 149.910789,195.497704 C150.293303,195.321792 150.659423,194.940651 151.00915,194.35428 C151.358877,193.76791 151.719533,192.937218 152.091117,191.862204 C152.462702,190.787191 152.867074,189.350583 153.304232,187.552379 L153.95997,187.552379 Z" id="路径" transform="translate(143.96, 178.9034) rotate(27) translate(-143.96, -178.9034)"></path>
                <path d="M159.052787,202.126561 C159.052787,203.088599 159.121501,203.733165 159.25893,204.060258 C159.396359,204.387351 159.682668,204.589379 160.117859,204.666343 L163.244359,205.243566 L163.244359,206.282567 C161.870073,206.167123 160.495787,206.1094 159.121501,206.1094 C157.747216,206.1094 156.155335,206.167123 154.345859,206.282567 L154.345859,205.243566 L156.235501,204.666343 C157.014263,204.435453 157.512442,204.166083 157.730037,203.85823 C157.947632,203.550378 158.05643,202.973155 158.05643,202.126561 L158.05643,177.190523 C158.05643,175.420373 157.941906,174.09276 157.712859,173.207684 C157.483811,172.322609 157.048621,171.803108 156.407287,171.649182 L154.380216,171.129681 L154.380216,170.032957 L158.571787,170.032957 C158.846644,170.032957 159.075692,170.052198 159.25893,170.09068 C159.442168,170.129161 159.602501,170.206124 159.73993,170.321569 C159.877359,170.437013 160.009061,170.59094 160.135037,170.783347 C160.261013,170.975755 160.415621,171.225885 160.598859,171.533737 L175.784716,199.298168 L175.475501,174.188963 C175.475501,173.11148 175.378156,172.409192 175.183466,172.082099 C174.988775,171.755006 174.673835,171.552978 174.238644,171.476015 L171.352644,170.898792 L171.352644,169.85979 C171.993978,169.975235 173.230835,170.032957 175.063216,170.032957 C176.918501,170.032957 178.178263,169.975235 178.842501,169.85979 L178.842501,170.898792 L177.330787,171.129681 C176.941406,171.206644 176.700906,171.447154 176.609287,171.85121 C176.517668,172.255266 176.483311,173.034517 176.506216,174.188963 L176.81543,206.85979 L175.990859,206.85979 L159.052787,176.382411 L159.052787,202.126561 Z" id="路径" transform="translate(166.5942, 188.3598) rotate(21) translate(-166.5942, -188.3598)"></path>
                <path d="M206.833887,195.853267 L204.621808,196.272622 C204.223868,196.352499 203.948821,196.512254 203.796668,196.751885 C203.644514,196.991516 203.568437,197.390902 203.568437,197.950042 L203.273866,208.418272 C203.273866,209.496613 203.262162,210.355292 203.238754,210.994308 C203.215346,211.633325 203.139269,212.142542 203.010523,212.521958 C202.881778,212.901375 202.676956,213.210898 202.396057,213.45053 C202.115158,213.690161 201.717218,213.969731 201.202237,214.289239 C200.289316,214.888318 199.218389,215.36758 197.989456,215.727027 C196.760523,216.086474 195.478922,216.266198 194.144653,216.266198 C192.271993,216.266198 190.55734,215.816889 189.000692,214.918272 C187.444044,214.019654 186.115626,212.751605 185.015439,211.114124 C183.915252,209.476643 183.060851,207.499685 182.452237,205.183249 C181.843623,202.866812 181.539316,200.290775 181.539316,197.455138 C181.539316,194.419808 181.878735,191.654063 182.557574,189.157903 C183.236413,186.661743 184.184447,184.535015 185.401675,182.777719 C186.618904,181.020422 188.046806,179.662511 189.685383,178.703986 C191.32396,177.745461 193.11469,177.266198 195.057574,177.266198 C198.17087,177.266198 200.769184,178.224723 202.852518,180.141774 L203.133417,187.690161 L202.606731,187.869885 C201.881076,184.874493 200.933042,182.597995 199.76263,181.040391 C198.592218,179.482788 197.164316,178.703986 195.478922,178.703986 C193.863754,178.703986 192.424147,179.133325 191.160102,179.992004 C189.896057,180.850683 188.819278,182.068809 187.929765,183.646382 C187.040252,185.223955 186.361413,187.121037 185.893248,189.337626 C185.425083,191.554216 185.191001,194.020422 185.191001,196.736244 C185.191001,199.092619 185.436787,201.359132 185.928361,203.535783 C186.419934,205.712434 187.104625,207.629485 187.982434,209.286935 C188.860243,210.944385 189.901909,212.262358 191.107434,213.240852 C192.312958,214.219347 193.629671,214.708594 195.057574,214.708594 C196.813192,214.708594 198.112349,214.169424 198.955046,213.091083 C199.797743,212.012742 200.219091,210.435169 200.219091,208.358364 L200.513662,197.950042 C200.513662,197.350963 200.425881,196.931608 200.250319,196.691977 C200.074758,196.452346 199.799711,196.312561 199.425179,196.272622 L196.15973,195.853267 L196.15973,194.655111 C197.985572,194.814865 199.764598,194.894742 201.496808,194.894742 C203.229018,194.894742 205.008044,194.814865 206.833887,194.655111 L206.833887,195.853267 Z" id="路径" transform="translate(194.1866, 196.7662) rotate(9) translate(-194.1866, -196.7662)"></path>
                <path d="M220.547854,216.489066 C220.547854,217.477105 220.62359,218.139092 220.775063,218.475025 C220.926536,218.810959 221.242104,219.018447 221.721767,219.09749 L225.16777,219.690314 L225.16777,220.757397 C223.653043,220.638832 222.138317,220.579549 220.62359,220.579549 C219.108864,220.579549 217.354306,220.638832 215.359916,220.757397 L215.359916,219.690314 L217.442665,219.09749 C218.30101,218.860361 218.850098,218.58371 219.08993,218.267537 C219.329761,217.951364 219.449677,217.358541 219.449677,216.489066 L219.449677,190.879081 C219.449677,189.061089 219.32345,187.697594 219.070996,186.788598 C218.818541,185.879601 218.338878,185.34606 217.632005,185.187974 L215.397784,184.654432 L215.397784,183.528067 L220.0177,183.528067 C220.320645,183.528067 220.573099,183.547828 220.775063,183.58735 C220.977026,183.626871 221.153745,183.705914 221.305217,183.824479 C221.45669,183.943044 221.601851,184.10113 221.740701,184.298738 C221.879551,184.496346 222.049958,184.753236 222.251921,185.069409 L238.989649,213.58423 L238.648836,187.796398 C238.648836,186.689794 238.541543,185.968525 238.326956,185.632592 C238.11237,185.296658 237.765245,185.08917 237.285582,185.010127 L234.104656,184.417303 L234.104656,183.35022 C234.811529,183.468785 236.174782,183.528067 238.194418,183.528067 C240.239299,183.528067 241.627798,183.468785 242.359916,183.35022 L242.359916,184.417303 L240.693716,184.654432 C240.264544,184.733476 239.999467,184.980485 239.898485,185.395462 C239.797503,185.810439 239.759635,186.610751 239.784881,187.796398 L240.125694,221.35022 L239.216858,221.35022 L220.547854,190.049128 L220.547854,216.489066 Z" id="路径" transform="translate(228.8599, 202.3502) rotate(2) translate(-228.8599, -202.3502)"></path>
                <path d="M257.196735,221.7133 C255.312677,221.7133 253.573063,221.234037 251.977894,220.275512 C250.382725,219.316987 249.013643,217.98903 247.870648,216.291641 C246.727652,214.594252 245.835865,212.567371 245.195285,210.210996 C244.554706,207.854621 244.234416,205.298553 244.234416,202.542793 C244.234416,199.787033 244.560986,197.201011 245.214126,194.784729 C245.867266,192.368446 246.784174,190.261687 247.96485,188.464452 C249.145527,186.667217 250.55857,185.259383 252.203981,184.24095 C253.849392,183.222517 255.676928,182.7133 257.68659,182.7133 C259.419923,182.7133 261.046493,183.202547 262.5663,184.181042 C264.086106,185.159537 265.417507,186.517447 266.560503,188.254775 C267.703498,189.992102 268.601565,192.068907 269.254706,194.485189 C269.907846,196.901472 270.234416,199.527432 270.234416,202.36307 C270.234416,205.198707 269.920406,207.804698 269.292387,210.181042 C268.664367,212.557386 267.77886,214.594252 266.635865,216.291641 C265.49287,217.98903 264.117507,219.316987 262.509778,220.275512 C260.902049,221.234037 259.131034,221.7133 257.196735,221.7133 Z M247.234416,202.821853 C247.234416,205.134353 247.482073,207.375855 247.977388,209.546359 C248.472702,211.716864 249.155433,213.623662 250.02558,215.266754 C250.895728,216.909846 251.933211,218.228377 253.13803,219.222346 C254.342849,220.216315 255.654764,220.7133 257.073773,220.7133 C260.39372,220.7133 262.917147,219.161491 264.644054,216.057872 C266.370962,212.954254 267.234416,208.501677 267.234416,202.700142 C267.234416,199.9008 267.000145,197.334736 266.531604,195.001951 C266.063064,192.669166 265.387026,190.671085 264.503492,189.007708 C263.619958,187.344331 262.555701,186.046085 261.310721,185.112971 C260.065741,184.179857 258.680199,183.7133 257.154094,183.7133 C255.547669,183.7133 254.128659,184.210285 252.897066,185.204254 C251.665473,186.198223 250.62799,187.557324 249.784616,189.281557 C248.941243,191.005789 248.305366,193.034298 247.876986,195.367083 C247.448606,197.699868 247.234416,200.184791 247.234416,202.821853 Z" id="形状"></path>
                <path d="M452.935446,90.1025455 C451.051388,90.1025455 449.311775,89.6232828 447.716606,88.6647574 C446.121437,87.7062321 444.752354,86.3782751 443.609359,84.6808865 C442.466364,82.9834978 441.574577,80.9566161 440.933997,78.6002413 C440.293417,76.2438665 439.973127,73.6877989 439.973127,70.9320385 C439.973127,68.1762782 440.299697,65.5902567 440.952838,63.173974 C441.605978,60.7576914 442.522886,58.6509326 443.703562,56.8536975 C444.884239,55.0564625 446.297282,53.6486284 447.942693,52.6301952 C449.588103,51.611762 451.415639,51.1025455 453.425301,51.1025455 C455.158635,51.1025455 456.785205,51.5917928 458.305011,52.5702874 C459.824818,53.548782 461.156219,54.9066929 462.299214,56.6440201 C463.44221,58.3813473 464.340277,60.4581522 464.993417,62.8744349 C465.646557,65.2907175 465.973127,67.9166776 465.973127,70.752315 C465.973127,73.5879525 465.659118,76.1939433 465.031098,78.5702874 C464.403079,80.9466315 463.517572,82.9834978 462.374577,84.6808865 C461.231582,86.3782751 459.856219,87.7062321 458.24849,88.6647574 C456.64076,89.6232828 454.869746,90.1025455 452.935446,90.1025455 Z M442.973127,71.2110981 C442.973127,73.5235981 443.220785,75.7651003 443.716099,77.9356047 C444.211414,80.1061091 444.894145,82.0129073 445.764292,83.6559994 C446.634439,85.2990915 447.671923,86.6176222 448.876742,87.6115915 C450.081561,88.6055608 451.393475,89.1025455 452.812485,89.1025455 C456.132431,89.1025455 458.655858,87.5507362 460.382766,84.4471178 C462.109674,81.3434994 462.973127,76.8909226 462.973127,71.0893876 C462.973127,68.2900455 462.738857,65.7239819 462.270316,63.3911968 C461.801775,61.0584117 461.125738,59.0603305 460.242204,57.3969533 C459.35867,55.7335762 458.294413,54.4353305 457.049433,53.5022165 C455.804453,52.5691025 454.418911,52.1025455 452.892806,52.1025455 C451.28638,52.1025455 449.867371,52.5995301 448.635778,53.5934994 C447.404185,54.5874687 446.366702,55.9465696 445.523328,57.670802 C444.679955,59.3950345 444.044078,61.4235433 443.615698,63.7563283 C443.187317,66.0891134 442.973127,68.5740367 442.973127,71.2110981 Z" id="形状" transform="translate(452.9731, 70.6025) rotate(-59) translate(-452.9731, -70.6025)"></path>
                <path d="M463.339677,64.4071833 C461.455619,64.4071833 459.716006,63.9279206 458.120837,62.9693953 C456.525668,62.0108699 455.156585,60.6829129 454.01359,58.9855243 C452.870595,57.2881357 451.978808,55.2612539 451.338228,52.9048791 C450.697648,50.5485043 450.377358,47.9924367 450.377358,45.2366764 C450.377358,42.480916 450.703928,39.8948945 451.357069,37.4786119 C452.010209,35.0623292 452.927117,32.9555704 454.107793,31.1583354 C455.288469,29.3611003 456.701513,27.9532662 458.346924,26.9348331 C459.992334,25.9163999 461.81987,25.4071833 463.829532,25.4071833 C465.562866,25.4071833 467.189436,25.8964306 468.709242,26.8749252 C470.229049,27.8534198 471.56045,29.2113308 472.703445,30.9486579 C473.846441,32.6859851 474.744508,34.76279 475.397648,37.1790727 C476.050788,39.5953553 476.377358,42.2213154 476.377358,45.0569529 C476.377358,47.8925904 476.063349,50.4985811 475.435329,52.8749252 C474.80731,55.2512693 473.921803,57.2881357 472.778808,58.9855243 C471.635812,60.6829129 470.26045,62.0108699 468.652721,62.9693953 C467.044991,63.9279206 465.273977,64.4071833 463.339677,64.4071833 Z M453.377358,45.5157359 C453.377358,47.8282359 453.625016,50.0697381 454.12033,52.2402425 C454.615645,54.4107469 455.298376,56.3175451 456.168523,57.9606372 C457.03867,59.6037293 458.076154,60.92226 459.280973,61.9162293 C460.485792,62.9101986 461.797706,63.4071833 463.216716,63.4071833 C466.536662,63.4071833 469.060089,61.8553741 470.786997,58.7517557 C472.513905,55.6481372 473.377358,51.1955605 473.377358,45.3940254 C473.377358,42.5946833 473.143088,40.0286197 472.674547,37.6958346 C472.206006,35.3630495 471.529969,33.3649684 470.646435,31.7015912 C469.762901,30.038214 468.698644,28.7399684 467.453664,27.8068543 C466.208684,26.8737403 464.823142,26.4071833 463.297037,26.4071833 C461.690611,26.4071833 460.271602,26.9041679 459.040009,27.8981372 C457.808416,28.8921065 456.770933,30.2512074 455.927559,31.9754399 C455.084186,33.6996723 454.448309,35.7281811 454.019929,38.0609662 C453.591548,40.3937513 453.377358,42.8786745 453.377358,45.5157359 Z" id="形状" transform="translate(463.3774, 44.9072) rotate(-69) translate(-463.3774, -44.9072)"></path>
                <path d="M278.273796,219.194577 C277.839833,219.194577 277.481343,218.950866 277.198324,218.463445 C276.915305,217.976023 276.773796,217.386401 276.773796,216.694577 C276.773796,215.971307 276.915305,215.373822 277.198324,214.902124 C277.481343,214.430426 277.839833,214.194577 278.273796,214.194577 C278.707758,214.194577 279.066248,214.430426 279.349267,214.902124 C279.632286,215.373822 279.773796,215.971307 279.773796,216.694577 C279.773796,217.386401 279.632286,217.976023 279.349267,218.463445 C279.066248,218.950866 278.707758,219.194577 278.273796,219.194577 Z" id="路径" transform="translate(278.2738, 216.6946) rotate(-9) translate(-278.2738, -216.6946)"></path>
                <path d="M297.803693,216.878527 C295.85154,216.759405 293.12666,216.699844 289.629052,216.699844 C286.050105,216.699844 283.311668,216.759405 281.413741,216.878527 C281.684874,216.004964 281.962784,215.200889 282.247473,214.466301 C282.532162,213.731714 282.898191,212.967346 283.345559,212.173198 C283.792928,211.37905 284.348749,210.465779 285.013024,209.433386 C285.677298,208.400993 286.524587,207.110502 287.55489,205.561913 L288.490296,204.132446 C290.415336,201.313219 291.852338,198.72231 292.801301,196.359718 C293.750264,193.997127 294.224746,191.743731 294.224746,189.59953 C294.224746,187.217085 293.763821,185.37069 292.841971,184.060345 C291.920121,182.75 290.767808,182.094828 289.385033,182.094828 C288.002258,182.094828 286.775384,182.769854 285.704411,184.119906 C284.633438,185.469959 283.894603,187.395768 283.487904,189.897336 L282.511827,189.59953 C282.945639,186.2244 283.840376,183.593783 285.196038,181.707681 C286.5517,179.821578 288.259834,178.878527 290.32044,178.878527 C291.296516,178.878527 292.211588,179.126698 293.065655,179.623041 C293.919722,180.119384 294.672114,180.814264 295.322832,181.707681 C295.97355,182.601098 296.488701,183.643417 296.868287,184.83464 C297.247872,186.025863 297.437665,187.2965 297.437665,188.646552 C297.437665,189.91719 297.308877,191.098485 297.051301,192.190439 C296.793725,193.282393 296.407362,194.364421 295.89221,195.436521 C295.377059,196.508621 294.746676,197.620429 294.001062,198.771944 C293.255448,199.923459 292.381046,201.194097 291.377856,202.583856 L289.629052,205.025863 C288.192051,206.852404 286.497473,209.592216 284.54532,213.245298 L294.021397,213.245298 C294.590775,213.245298 295.044921,213.185737 295.383837,213.066615 C295.722752,212.947493 296.01422,212.719175 296.258239,212.381662 C296.502258,212.044149 296.719164,211.59744 296.908957,211.041537 C297.098749,210.485633 297.302099,209.751045 297.519004,208.837775 L298.413741,208.837775 L297.803693,216.878527 Z" id="路径" transform="translate(289.9137, 197.8785) rotate(-13) translate(-289.9137, -197.8785)"></path>
                <path d="M328.737958,173.969421 C328.737958,173.167733 328.67827,172.596531 328.558895,172.255813 C328.439519,171.915096 328.236581,171.724695 327.950079,171.684611 L326.087821,171.323851 L326.087821,170.3017 C326.541448,170.381868 327.144294,170.441995 327.89636,170.482079 C328.648427,170.522164 329.537775,170.542206 330.564405,170.542206 C331.591034,170.542206 332.480383,170.522164 333.232449,170.482079 C333.984515,170.441995 334.575424,170.381868 335.005176,170.3017 L335.005176,171.323851 L332.498289,171.925117 C332.187912,172.005286 331.984974,172.185666 331.889473,172.466257 C331.793973,172.746847 331.746223,173.267944 331.746223,174.029548 L331.746223,203.912459 C331.746223,204.754231 331.799942,205.355497 331.90738,205.716257 C332.014818,206.077016 332.283413,206.317522 332.713165,206.437776 L335.434928,207.279548 L335.434928,208.3017 C334.83805,208.221531 334.139703,208.161404 333.339887,208.12132 C332.54007,208.081235 331.650722,208.061193 330.671843,208.061193 C329.716838,208.061193 328.82749,208.081235 328.003798,208.12132 C327.180107,208.161404 326.457885,208.221531 325.837132,208.3017 L325.837132,207.279548 L328.021705,206.678282 C328.308206,206.598113 328.499207,206.357607 328.594708,205.956763 C328.690208,205.555919 328.737958,204.874484 328.737958,203.912459 L328.737958,190.143472 L316.096085,190.143472 L316.096085,203.912459 C316.096085,204.914569 316.143835,205.606024 316.239336,205.986826 C316.334836,206.367628 316.537775,206.598113 316.848151,206.678282 L319.032724,207.279548 L319.032724,208.3017 C318.411971,208.221531 317.689749,208.161404 316.866057,208.12132 C316.042366,208.081235 315.14108,208.061193 314.162201,208.061193 C313.207196,208.061193 312.329786,208.081235 311.529969,208.12132 C310.730153,208.161404 310.031806,208.221531 309.434928,208.3017 L309.434928,207.279548 L312.156691,206.437776 C312.538693,206.317522 312.789382,206.077016 312.908757,205.716257 C313.028133,205.355497 313.087821,204.754231 313.087821,203.912459 L313.087821,173.969421 C313.087821,173.167733 313.028133,172.596531 312.908757,172.255813 C312.789382,171.915096 312.586443,171.724695 312.299942,171.684611 L310.437683,171.323851 L310.437683,170.3017 C310.89131,170.381868 311.500125,170.441995 312.264129,170.482079 C313.028133,170.522164 313.947325,170.542206 315.021705,170.542206 C316.096085,170.542206 317.009308,170.522164 317.761374,170.482079 C318.51344,170.441995 319.104349,170.381868 319.534102,170.3017 L319.534102,171.323851 L316.848151,171.925117 C316.537775,172.005286 316.334836,172.185666 316.239336,172.466257 C316.143835,172.746847 316.096085,173.267944 316.096085,174.029548 L316.096085,188.279548 L328.737958,188.279548 L328.737958,173.969421 Z" id="路径" transform="translate(322.4349, 189.3017) rotate(-20) translate(-322.4349, -189.3017)"></path>
                <path d="M339.163336,196.873791 L339.163336,165.908601 C339.163336,165.227166 339.090968,164.746153 338.946231,164.465563 C338.801494,164.184972 338.544915,164.024634 338.176494,163.98455 L334.821231,163.443411 L334.821231,162.421259 C335.084389,162.541512 337.847547,162.601639 343.110705,162.601639 C344.663336,162.601639 345.900178,162.541512 346.821231,162.421259 L346.821231,163.503537 L344.45281,163.924423 C344.110705,163.964508 343.814652,163.994571 343.564652,164.014613 C343.314652,164.034656 343.110705,164.104803 342.95281,164.225056 C342.794915,164.34531 342.676494,164.53571 342.597547,164.796259 C342.5186,165.056807 342.479126,165.427588 342.479126,165.908601 L342.479126,196.873791 C342.479126,197.555225 342.544915,198.006175 342.676494,198.226639 C342.808073,198.447103 343.071231,198.577377 343.465968,198.617461 L346.821231,198.918094 L346.821231,200.421259 C346.294915,200.34109 345.538336,200.280964 344.551494,200.240879 C343.564652,200.200795 342.321231,200.180753 340.821231,200.180753 C339.321231,200.180753 338.07781,200.200795 337.090968,200.240879 C336.104126,200.280964 335.347547,200.34109 334.821231,200.421259 L334.821231,198.918094 L337.150178,198.737715 C337.544915,198.69763 337.867284,198.657546 338.117284,198.617461 C338.367284,198.577377 338.571231,198.507229 338.729126,198.407018 C338.887021,198.306807 338.998863,198.14647 339.064652,197.926006 C339.130442,197.705542 339.163336,197.354803 339.163336,196.873791 Z" id="路径" transform="translate(340.8212, 181.4213) rotate(-25) translate(-340.8212, -181.4213)"></path>
                <path d="M372.369546,171.136539 L370.157468,171.545141 C369.759528,171.62297 369.484481,171.778628 369.332327,172.012115 C369.180174,172.245602 369.104097,172.634747 369.104097,173.17955 L368.449503,182.478903 C368.449503,183.529595 368.437799,184.366256 368.414391,184.988888 C368.390983,185.61152 368.314906,186.10768 368.18616,186.477367 C368.057415,186.847055 367.852593,187.148642 367.571694,187.382129 C367.290795,187.615616 366.892855,187.888018 366.377874,188.199333 C365.464953,188.783051 364.394026,189.250025 363.165093,189.600255 C361.93616,189.950486 360.654559,190.125601 359.32029,190.125601 C357.447631,190.125601 355.732977,189.687813 354.176329,188.812237 C352.619681,187.936661 351.291263,186.701126 350.191076,185.105631 C349.090889,183.510137 348.236488,181.58387 347.627874,179.32683 C347.01926,177.069789 346.714953,174.559805 346.714953,171.796876 C346.714953,168.839374 347.054372,166.144546 347.733211,163.71239 C348.41205,161.280235 349.360084,159.208038 350.577312,157.4958 C351.794541,155.783563 353.222443,154.46047 354.86102,153.526522 C356.499597,152.592575 358.290327,152.125601 360.233211,152.125601 C363.346507,152.125601 365.944822,153.059549 368.028155,154.927444 L368.309054,162.282283 L367.782368,162.457398 C367.056713,159.538811 366.108679,157.320685 364.938267,155.80302 C363.767855,154.285355 362.339953,153.526522 360.654559,153.526522 C359.039391,153.526522 357.599784,153.944853 356.335739,154.781515 C355.071694,155.618176 353.994915,156.805068 353.105402,158.342191 C352.215889,159.879313 351.53705,161.727751 351.068885,163.887506 C350.60072,166.04726 350.366638,168.45023 350.366638,171.096415 C350.366638,173.39237 350.612425,175.600767 351.103998,177.721607 C351.595571,179.842447 352.280262,181.710342 353.158071,183.325294 C354.03588,184.940245 355.077546,186.224423 356.283071,187.177828 C357.488595,188.131233 358.805308,188.607936 360.233211,188.607936 C361.988829,188.607936 363.287986,188.08259 364.130683,187.031899 C364.97338,185.981208 365.394728,184.444085 365.394728,182.420532 L366.049322,173.17955 C366.049322,172.595832 365.961541,172.18723 365.785979,171.953743 C365.610417,171.720256 365.33537,171.584056 364.960838,171.545141 L361.695389,171.136539 L361.695389,169.969104 C363.521232,170.124762 365.300258,170.202591 367.032468,170.202591 C368.764677,170.202591 370.543704,170.124762 372.369546,169.969104 L372.369546,171.136539 Z" id="路径" transform="translate(359.5422, 171.1256) rotate(-30) translate(-359.5422, -171.1256)"></path>
                <path d="M387.954751,141.07921 C387.954751,140.277522 387.890472,139.70632 387.761913,139.365602 C387.633355,139.024885 387.414806,138.834484 387.106266,138.7944 L385.100756,138.43364 L385.100756,137.411489 C385.589278,137.491657 386.238497,137.551784 387.048415,137.591868 C387.858332,137.631953 388.816092,137.651995 389.921693,137.651995 C391.027295,137.651995 391.985054,137.631953 392.794971,137.591868 C393.604889,137.551784 394.241252,137.491657 394.704062,137.411489 L394.704062,138.43364 L392.004338,139.034906 C391.670086,139.115075 391.451537,139.295455 391.34869,139.576046 C391.245844,139.856636 391.19442,140.377733 391.19442,141.139337 L391.19442,171.022248 C391.19442,171.86402 391.252272,172.465286 391.367974,172.826046 C391.483677,173.186805 391.772933,173.427311 392.235743,173.547564 L395.166872,174.389337 L395.166872,175.411489 C394.524081,175.33132 393.772014,175.271193 392.910674,175.231109 C392.049333,175.191024 391.091574,175.170982 390.037396,175.170982 C389.008929,175.170982 388.05117,175.191024 387.164117,175.231109 C386.277065,175.271193 385.499287,175.33132 384.830784,175.411489 L384.830784,174.389337 L387.183401,173.788071 C387.491941,173.707902 387.697634,173.467396 387.800481,173.066552 C387.903328,172.665708 387.954751,171.984273 387.954751,171.022248 L387.954751,157.253261 L374.340426,157.253261 L374.340426,171.022248 C374.340426,172.024358 374.391849,172.715813 374.494696,173.096615 C374.597542,173.477417 374.816092,173.707902 375.150343,173.788071 L377.50296,174.389337 L377.50296,175.411489 C376.834457,175.33132 376.056679,175.271193 375.169627,175.231109 C374.282575,175.191024 373.311959,175.170982 372.257781,175.170982 C371.229315,175.170982 370.284411,175.191024 369.42307,175.231109 C368.56173,175.271193 367.809664,175.33132 367.166872,175.411489 L367.166872,174.389337 L370.098002,173.547564 C370.509388,173.427311 370.779361,173.186805 370.907919,172.826046 C371.036477,172.465286 371.100756,171.86402 371.100756,171.022248 L371.100756,141.07921 C371.100756,140.277522 371.036477,139.70632 370.907919,139.365602 C370.779361,139.024885 370.560812,138.834484 370.252272,138.7944 L368.246762,138.43364 L368.246762,137.411489 C368.735284,137.491657 369.390931,137.551784 370.213704,137.591868 C371.036477,137.631953 372.026376,137.651995 373.183401,137.651995 C374.340426,137.651995 375.323897,137.631953 376.133814,137.591868 C376.943732,137.551784 377.580095,137.491657 378.042905,137.411489 L378.042905,138.43364 L375.150343,139.034906 C374.816092,139.115075 374.597542,139.295455 374.494696,139.576046 C374.391849,139.856636 374.340426,140.377733 374.340426,141.139337 L374.340426,155.389337 L387.954751,155.389337 L387.954751,141.07921 Z" id="路径" transform="translate(381.1669, 156.4115) rotate(-36) translate(-381.1669, -156.4115)"></path>
                <path d="M413.95466,123.316241 C413.070204,117.9911 410.811684,115.328529 407.179099,115.328529 C406.357819,115.328529 405.58392,115.49238 404.857403,115.820081 C404.130886,116.147782 403.499132,116.598371 402.962141,117.171847 C402.42515,117.745324 402.006613,118.410967 401.70653,119.168775 C401.406447,119.926584 401.256405,120.735595 401.256405,121.59581 C401.256405,122.333138 401.359066,122.99878 401.564386,123.592738 C401.769706,124.186696 402.148758,124.790895 402.701543,125.405334 C403.254327,126.019774 403.996638,126.685416 404.928475,127.402262 C405.860312,128.119108 407.036954,128.948601 408.458401,129.890741 C409.943022,130.873844 411.222324,131.764781 412.296306,132.563552 C413.370287,133.362323 414.246846,134.202057 414.925982,135.082754 C415.605117,135.96345 416.102623,136.946553 416.4185,138.032062 C416.734377,139.117572 416.892316,140.438616 416.892316,141.995196 C416.892316,143.715626 416.647511,145.292687 416.157902,146.726379 C415.668292,148.160071 414.973363,149.378709 414.073114,150.382293 C413.172864,151.385877 412.059398,152.164167 410.732715,152.717162 C409.406031,153.270158 407.92141,153.546655 406.278849,153.546655 C403.36262,153.546655 401.20154,152.679301 398.771753,150.935288 C398.648626,150.846912 398.014194,152.810017 397.892316,152.717162 L398.413513,141.442201 L399.124236,141.442201 C399.250587,142.916855 399.566464,144.278862 400.071867,145.528222 C400.57727,146.777582 401.19323,147.863092 401.919747,148.784751 C402.646264,149.706409 403.467544,150.423255 404.383588,150.935288 C405.299631,151.447321 406.231468,151.703337 407.179099,151.703337 C408.031967,151.703337 408.861144,151.539487 409.66663,151.211786 C410.472116,150.884085 411.182839,150.413015 411.7988,149.798575 C412.41476,149.184136 412.912266,148.446809 413.291318,147.586594 C413.670371,146.726379 413.859897,145.763757 413.859897,144.698729 C413.859897,143.715626 413.741443,142.84517 413.504535,142.087362 C413.267627,141.329553 412.864884,140.612708 412.296306,139.936824 C411.727727,139.260941 410.961726,138.564576 409.998301,137.847731 C409.034876,137.130885 407.84244,136.301392 406.420994,135.359251 C403.609689,133.474971 401.580179,131.631653 400.332465,129.829297 C399.084751,128.026942 398.460894,125.95833 398.460894,123.62346 C398.460894,122.107843 398.697802,120.735595 399.171617,119.506717 C399.645433,118.277838 400.308775,117.223051 401.161642,116.342354 C402.01451,115.461658 403.01742,114.775534 404.170371,114.283982 C405.323322,113.792431 406.578933,113.546655 407.937204,113.546655 C410.335537,113.546655 412.385028,114.233021 414.085674,115.605751 C414.333713,115.805963 414.692784,114.05457 414.925982,114.283982 L414.618002,123.316241 L413.95466,123.316241 Z" id="路径" transform="translate(407.3923, 133.5467) rotate(-43) translate(-407.3923, -133.5467)"></path>
                <path d="M434.985683,125.30551 C434.68503,127.628091 434.261381,130.079703 433.714738,132.660349 C431.992813,133.582008 429.437258,134.042837 426.048072,134.042837 C423.943497,134.042837 422.023413,133.628091 420.287822,132.798597 C418.552231,131.969104 417.069462,130.798597 415.839516,129.287077 C414.609569,127.775556 413.659777,125.950671 412.990139,123.812422 C412.320502,121.674174 411.985683,119.27786 411.985683,116.623482 C411.985683,114.153436 412.327335,111.803206 413.010639,109.572791 C413.693942,107.342376 414.636901,105.370026 415.839516,103.65574 C417.04213,101.941455 418.456568,100.577399 420.082831,99.5635744 C421.709094,98.5497495 423.451518,98.0428371 425.310104,98.0428371 C426.54005,98.0428371 427.599171,98.0797035 428.487466,98.1534362 C429.37576,98.2271689 430.147893,98.3469846 430.803865,98.5128832 C431.459836,98.6787818 432.040644,98.9091965 432.546289,99.2041274 C433.051934,99.4990583 433.564412,99.8677219 434.083722,100.310118 C434.165719,101.194911 434.227216,102.153436 434.268214,103.185694 C434.309213,104.217952 434.316046,105.213344 434.288713,106.171869 L433.468749,106.171869 C432.949438,104.033621 432.061144,102.356201 430.803865,101.139611 C429.546586,99.9230214 427.961322,99.3147265 426.048072,99.3147265 C424.6268,99.3147265 423.314857,99.7202565 422.112243,100.531316 C420.909628,101.342376 419.871007,102.503667 418.996378,104.015187 C418.12175,105.526708 417.438446,107.342376 416.946467,109.462192 C416.454489,111.582008 416.2085,113.932238 416.2085,116.512883 C416.2085,121.858505 417.055796,125.895372 418.750389,128.623482 C420.444982,131.351593 422.918541,132.715648 426.171066,132.715648 C428.084316,132.715648 429.717412,132.08892 431.070353,130.835464 C432.423295,129.582008 433.537079,127.73869 434.411708,125.30551 L434.985683,125.30551 Z" id="路径" transform="translate(423.4857, 116.0428) rotate(-51) translate(-423.4857, -116.0428)"></path>
                <path d="M445.468168,78.9686447 C445.468168,78.1669569 445.406185,77.5957544 445.282218,77.2550371 C445.158251,76.9143198 444.947507,76.7239189 444.649986,76.6838346 L442.716102,76.3230751 L442.716102,75.3009232 C443.187176,75.3810919 443.813209,75.4412185 444.594201,75.4813029 C445.375193,75.5213873 446.298747,75.5414295 447.364862,75.5414295 C448.430978,75.5414295 449.354532,75.5213873 450.135523,75.4813029 C450.916515,75.4412185 451.530152,75.3810919 451.976432,75.3009232 L451.976432,76.3230751 L449.373127,76.9243409 C449.050813,77.0045097 448.840069,77.1848894 448.740895,77.4654801 C448.641722,77.7460708 448.592135,78.2671679 448.592135,79.0287713 L448.592135,108.911683 C448.592135,109.753455 448.64792,110.354721 448.75949,110.71548 C448.871061,111.07624 449.149986,111.316746 449.596267,111.436999 L452.422713,112.278771 L452.422713,113.300923 C451.802879,113.220754 451.077672,113.160628 450.247094,113.120543 C449.416515,113.080459 448.492961,113.060417 447.476432,113.060417 C446.484697,113.060417 445.561143,113.080459 444.705771,113.120543 C443.850399,113.160628 443.100399,113.220754 442.455771,113.300923 L442.455771,112.278771 L444.724366,111.677505 C445.021887,111.597337 445.220234,111.35683 445.319408,110.955986 C445.418581,110.555143 445.468168,109.873708 445.468168,108.911683 L445.468168,95.1426953 L432.340069,95.1426953 L432.340069,108.911683 C432.340069,109.913792 432.389656,110.605248 432.488829,110.98605 C432.588003,111.366851 432.798747,111.597337 433.121061,111.677505 L435.389656,112.278771 L435.389656,113.300923 C434.745028,113.220754 433.995028,113.160628 433.139656,113.120543 C432.284284,113.080459 431.348333,113.060417 430.331804,113.060417 C429.340069,113.060417 428.428912,113.080459 427.598333,113.120543 C426.767755,113.160628 426.042548,113.220754 425.422713,113.300923 L425.422713,112.278771 L428.24916,111.436999 C428.645854,111.316746 428.906185,111.07624 429.030152,110.71548 C429.154118,110.354721 429.216102,109.753455 429.216102,108.911683 L429.216102,78.9686447 C429.216102,78.1669569 429.154118,77.5957544 429.030152,77.2550371 C428.906185,76.9143198 428.695441,76.7239189 428.39792,76.6838346 L426.464036,76.3230751 L426.464036,75.3009232 C426.93511,75.3810919 427.567342,75.4412185 428.36073,75.4813029 C429.154118,75.5213873 430.108664,75.5414295 431.224366,75.5414295 C432.340069,75.5414295 433.288416,75.5213873 434.069408,75.4813029 C434.850399,75.4412185 435.464036,75.3810919 435.910317,75.3009232 L435.910317,76.3230751 L433.121061,76.9243409 C432.798747,77.0045097 432.588003,77.1848894 432.488829,77.4654801 C432.389656,77.7460708 432.340069,78.2671679 432.340069,79.0287713 L432.340069,93.2787713 L445.468168,93.2787713 L445.468168,78.9686447 Z" id="路径" transform="translate(438.9227, 94.3009) rotate(-54) translate(-438.9227, -94.3009)"></path>
                <path d="M467.393374,34.8135406 C467.393374,35.3072115 467.454114,35.6774646 467.575593,35.9243001 C467.697072,36.1711355 468.014266,36.2945532 468.527177,36.2945532 L472.293022,36.2945532 C473.45382,36.2945532 474.486391,36.2375912 475.390734,36.1236672 C476.295076,36.0097431 477.111684,35.696452 477.840558,35.1837937 C478.569431,34.6711355 479.237565,33.8736672 479.844959,32.7913887 C480.452353,31.7091102 481.039501,30.2186039 481.606403,28.3198697 L482.25429,28.3198697 L481.079994,37.7186039 C479.946191,37.6426545 478.454701,37.5856925 476.605522,37.5477178 C474.756344,37.5097431 472.495487,37.4907558 469.822952,37.4907558 C467.150417,37.4907558 464.936802,37.5097431 463.182107,37.5477178 C461.427412,37.5856925 460.11814,37.6426545 459.25429,37.7186039 L459.25429,36.8641735 L461.764853,36.2945532 C462.331755,36.2186039 462.76368,36.1046798 463.060628,35.9527811 C463.357576,35.8008824 463.56679,35.6015153 463.688269,35.3546798 C463.809748,35.1078444 463.870487,34.7755659 463.870487,34.3578444 L463.870487,5.25024945 C463.870487,4.52873046 463.782752,4.06354058 463.607283,3.85467983 C463.431813,3.64581907 463.168609,3.503414 462.81767,3.42746464 L459.821191,2.68695831 L459.821191,1.71860388 C461.278938,1.83252793 463.465558,1.88948995 466.381051,1.88948995 C469.296543,1.88948995 471.105229,1.83252793 471.807107,1.71860388 L471.807107,2.68695831 L468.446191,3.42746464 C468.041262,3.503414 467.76456,3.62683172 467.616086,3.7977178 C467.467612,3.96860388 467.393374,4.45278109 467.393374,5.25024945 L467.393374,34.8135406 Z" id="路径" transform="translate(470.7543, 19.7186) rotate(-74) translate(-470.7543, -19.7186)"></path>
            </g>
            <rect id="内环绿" fill="#006F04" x="87" y="88" width="380" height="380" rx="190"></rect>
            <path d="M271.1918,154 C284.348128,171.567306 286.475964,192.357699 277.575309,216.371179 C267.444542,245.885234 247.586106,270.761507 218,291 L230,291 C261.333333,264.802122 280.121033,239.347363 286.3631,214.635722 C292.769582,192.49543 290.627528,172.283523 279.936938,154 L288.754136,154 C295.239489,163.744882 298.069763,175.082289 297.24496,188.01222 C297.24496,226.986507 278.163307,261.315767 240,291 L254.267893,291 C258.543666,285.712369 297.24496,250.375885 305.835519,200.191534 C307.502626,183.715671 305.051508,168.318494 298.482165,154 L306.174519,153.999113 C312.077951,168.352901 314.573052,181.474504 313.659823,193.363921 C313.659823,230.803262 283.488037,271.651639 265.086597,290.34706 L462,291 C454.575747,297.43582 449.949815,301.672962 448.122203,303.711425 C356.846462,288.699544 342.179431,358.594995 275.5,358.594995 C208.820569,358.594995 213.929728,311.817551 96.9962175,305.126591 C95.4710101,300.611388 92.2456839,295.488438 87.3202389,289.75774 L135.703002,289.917703 C150.173249,285.074507 159.99663,280.809588 165.173145,277.122946 C181.106457,265.775464 185.996962,252.763915 187.075613,250.635209 C197.330202,230.397879 199.98213,197.447593 187.075613,179.30425 C179.503218,168.659353 165.173145,164.983345 148.662108,164.983345 C148.662108,162.728639 147.103193,159.067228 143.985363,153.999113 Z" id="logo" fill="#FFFFFF"></path>
        </g>
    </g>
</svg>